<svg width="90" height="104" viewBox="0 0 90 104" fill="none" xmlns="http://www.w3.org/2000/svg">
<path d="M44.9101 103.84L43.9271 103.274C34.2587 97.7053 25.94 91.3437 19.2022 84.3657C13.7845 78.7547 9.36959 72.7337 6.08019 66.4692C0.423386 55.6965 0.0486943 47.9513 0.0355729 47.6268L0 46.7532L0.624294 46.1409C5.23984 41.6131 10.4324 37.2515 16.0636 33.1716C16.2514 32.8165 16.4412 32.4593 16.6316 32.103C17.9172 29.6956 19.1494 27.4515 19.3331 27.1171C23.8659 17.9239 31.7886 11.355 32.2298 10.9937L45.6545 0L44.1088 5.81806L39.8242 18.9827C42.4896 17.7058 44.0779 17.0608 44.1726 17.0223L44.9104 16.7243L45.6484 17.0223C45.8904 17.1203 51.6732 19.4731 59.9612 24.2458C67.6011 28.6456 78.8748 36.0155 89.1964 46.1406L89.8207 46.7529L89.7851 47.6265C89.7799 47.7589 89.6356 50.9296 88.1001 55.9648C86.706 60.5363 83.833 67.6446 78.0607 75.5475L77.9312 75.7242C70.2418 86.1899 59.4632 95.4577 45.893 103.273L44.9101 103.84ZM4.04987 48.3033C4.14726 49.1241 4.35924 50.5202 4.81062 52.359C5.50051 55.1699 6.90684 59.6219 9.68888 64.8678C12.8185 70.7695 17.0171 76.4549 22.1677 81.7659C28.3963 88.1887 36.0435 94.0805 44.9104 99.2889C57.5414 91.8709 67.5781 83.1632 74.755 73.3953L74.8812 73.223C77.858 69.1472 81.9067 62.6722 84.2811 54.9833C85.255 51.8298 85.63 49.479 85.77 48.303C75.9271 38.8016 65.2719 31.8502 57.9951 27.6597C51.6148 23.9854 46.7036 21.7633 44.9104 20.9873C43.6831 21.5186 40.9975 22.7255 37.4037 24.5995L33.1279 26.829L38.2458 11.1037L34.7287 14.0388C34.6532 14.1006 27.02 20.4082 22.8477 28.8964L22.8057 28.9768C22.7514 29.0757 21.4588 31.4256 20.1059 33.9589C19.8458 34.4462 19.5865 34.9349 19.3323 35.4174L19.1165 35.8268L18.7406 36.0974C13.397 39.9432 8.45868 44.0467 4.04987 48.3033Z" fill="white"/>
<path d="M42.2358 5.20862L33.4835 12.5126C33.4835 12.5126 25.5045 19.027 21.0805 28.0268C21.0286 28.1213 19.7313 30.4797 18.369 33.0305C18.1072 33.5206 17.8465 34.0125 17.5902 34.4983C12.4693 38.1846 7.11811 42.5295 2.00366 47.5466C2.00366 47.5466 3.2228 77.558 44.9105 101.567C60.1667 92.7803 70.0025 83.19 76.3425 74.561L76.4705 74.3861C87.3301 59.5171 87.8174 47.5466 87.8174 47.5466C68.1224 28.2269 44.9105 18.8482 44.9105 18.8482C44.9105 18.8482 41.6316 20.1732 36.4935 22.8523L42.2358 5.20862Z" fill="#000512"/>
<path d="M38.9954 26.3591C38.9954 26.3591 32.0553 31.8926 28.679 38.9263L29.7576 33.0648C29.7576 33.0648 27.038 31.9393 23.9897 29.5476C23.9897 29.5476 18.5971 39.3482 18.3627 40.3798C18.1282 41.4115 18.3627 42.8181 18.3627 42.8181C18.3627 42.8181 16.7683 44.9283 16.4872 45.3033C16.2058 45.6786 14.7053 48.2577 14.9867 48.961C15.268 49.6643 17.2141 49.9926 18.7379 49.594L17.1435 49.0782C17.1435 49.0782 19.2068 48.8201 19.4179 48.5154C19.629 48.2107 19.1599 44.3656 23.9431 41.552L23.1459 43.0056C23.1459 43.0056 25.5844 46.8038 20.4262 50.0865L21.6687 50.227C21.6687 50.227 18.644 51.3992 15.7366 51.3759C15.7366 51.3759 12.1728 56.0416 9.40625 57.7299C9.40625 57.7299 10.1565 59.9807 10.1565 61.0123C10.1565 62.0439 11.5165 64.1072 15.9244 63.4509C15.9244 63.4509 15.5728 61.8567 15.7369 60.9657C15.9011 60.0746 17.4719 57.7302 20.3559 57.1908C20.3559 57.1908 21.0359 53.6033 26.5224 52.1498L27.5541 49.1488C27.5541 49.1488 29.8988 51.8684 29.5235 58.7149C29.1482 65.5611 26.833 68.4837 25.7722 69.1467C24.7111 69.8098 22.5227 70.8047 22.5227 70.8047C22.5227 70.8047 25.4407 72.728 27.0322 72.3962C28.6236 72.0646 32.2049 69.6109 32.2049 69.6109C32.2049 69.6109 31.8069 65.2342 33.1995 62.6478C33.1995 62.6478 34.3268 55.0878 33.0669 48.7878L35.2552 51.4404C35.2552 51.4404 37.9743 48.1909 40.2953 42.9519C40.2953 42.9519 36.4638 43.1934 33.7439 42.6306L37.2447 39.636C37.2441 39.6363 37.9638 33.6742 38.9954 26.3591ZM36.0836 31.3135L35.089 39.4371L34.1606 37.9118L30.3807 40.2329C30.3805 40.2329 33.2322 34.3309 36.0836 31.3135ZM12.3093 56.6297C12.8067 57.5748 12.9724 58.7187 12.4586 58.9674C11.9445 59.2161 11.0826 58.5198 11.5136 58.0224C11.9445 57.5249 12.3093 56.6297 12.3093 56.6297Z" fill="#F32C46"/>
<path d="M35.586 15.0327C35.586 15.0327 27.977 21.3826 23.9893 29.5477C24.0846 29.6223 24.1794 29.6958 24.2741 29.7681C25.7429 30.8907 27.113 31.7133 28.1178 32.2574L30.0149 32.1501L35.586 15.0327Z" fill="#B4BBCC"/>
<path d="M41.9024 45.6321L49.5458 45.9604C49.5458 45.9604 55.7825 40.1459 70.5068 36.3943C70.5068 36.3943 61.4096 30.6733 40.4019 34.6124C40.4019 34.6124 49.6866 35.8315 54.0945 36.6757L47.3419 38.4576C47.3419 38.4576 43.4029 41.8339 41.9024 45.6321Z" fill="#F32C46"/>
<path d="M80.3547 56.0888C70.8825 51.8683 56.8145 55.4324 56.8145 55.4324L54.001 51.212C54.001 51.212 58.6643 49.1854 69.0761 49.2519C69.0761 49.2519 66.4897 45.3394 61.2507 41.095L68.015 40.3655C68.015 40.3655 75.5184 46.2141 80.3547 56.0888Z" fill="#F32C46"/>
<path d="M71.7268 56.2766C72.3832 61.8101 72.7585 67.7182 72.7585 67.7182C67.6942 63.8731 60.2849 59.6526 60.2849 59.6526L61.0352 63.8728C61.0352 63.8728 66.5191 67.3403 71.544 73.3441C74.0053 70.088 75.8887 66.9793 77.3297 64.141C77.4691 60.5522 77.0722 58.4332 77.0722 58.4332L71.7268 56.2766Z" fill="#F32C46"/>
<path d="M42.8809 48.9204C42.8809 48.9204 45.8504 53.8657 46.8293 61.2823C47.0617 61.2878 47.2871 61.2939 47.5253 61.2983C48.3893 61.3146 49.2649 61.3228 49.9318 61.3109C50.2653 61.305 50.5488 61.2937 50.7348 61.2785C50.7721 61.2756 50.7803 61.2732 50.8086 61.2703C49.8498 57.0079 48.8494 55.3531 48.8494 55.3531L49.7661 53.0061C45.7276 49.8045 42.8809 48.9204 42.8809 48.9204ZM56.2213 59.3741C55.2051 60.2154 54.1857 61.0578 53.3868 61.7135C52.9692 62.0564 52.6117 62.3486 52.3435 62.5656C52.0752 62.7825 51.9959 62.8609 51.7833 63.0027C51.4748 63.2082 51.3839 63.1753 51.2623 63.1969C51.1407 63.2184 51.0243 63.2304 50.8943 63.2409C50.6342 63.2622 50.3237 63.2732 49.9673 63.2797C49.2541 63.2925 48.3645 63.2843 47.4877 63.2674C47.3325 63.2645 47.1882 63.2604 47.0354 63.2569C47.201 65.4225 47.1806 67.7614 46.8704 70.2206C46.8914 70.2241 46.9118 70.2279 46.9331 70.2314C47.9557 70.404 49.0194 70.5673 49.8956 70.6697C50.7715 70.772 51.5667 70.7688 51.5836 70.7656C51.5924 70.7638 51.8863 70.6525 52.3097 70.4591C52.1353 67.9602 51.7679 64.5708 51.7679 64.5708C55.5472 61.6529 56.2213 59.3741 56.2213 59.3741ZM61.3466 66.6011C60.1697 67.7057 58.8103 68.7437 57.4923 69.6576C56.3169 70.4723 55.1768 71.1756 54.2251 71.7001C53.2734 72.225 52.633 72.5705 51.9513 72.7003C51.2719 72.8297 50.5995 72.7353 49.6664 72.6262C48.7333 72.5172 47.6466 72.3492 46.605 72.1734C46.5922 72.1713 46.5797 72.169 46.5668 72.1667C46.13 74.5119 45.4168 76.9502 44.3435 79.4386C46.5453 79.9701 49.8638 80.7347 52.1615 80.4976L52.4531 74.3297C58.3616 70.8131 61.3466 66.6011 61.3466 66.6011ZM65.6186 74.7749C63.9154 76.2005 61.7274 77.6057 59.5982 78.8715C57.9516 79.8503 56.3516 80.7154 55.066 81.3552C54.4234 81.6751 53.86 81.9381 53.3999 82.1334C52.9398 82.3291 52.6572 82.4597 52.2449 82.5215C51.8915 82.5746 51.5982 82.5504 51.1973 82.518C50.7963 82.4857 50.3242 82.43 49.8003 82.3585C48.7523 82.2157 47.5005 82.0089 46.2916 81.7964C45.2585 81.6147 44.2948 81.4348 43.4862 81.2811C41.7478 84.7574 39.2789 88.3099 35.8516 91.8267C35.8516 91.8267 42.2822 92.3171 50.0901 90.9788L51.9379 85.1622C62.629 80.2854 65.6186 74.7749 65.6186 74.7749Z" fill="#BB192E"/>
<path d="M19.1238 62.0177C17.8472 62.1338 16.5374 62.0011 16.5374 62.0011C16.5374 62.0011 16.4214 61.1059 17.0182 60.2936C17.0182 60.2936 18.0957 61.4375 19.1238 62.0177Z" fill="white"/>
<path d="M20.5805 60.3985C19.3153 60.193 17.7483 59.6719 17.7483 59.6719C17.7483 59.6719 18.1903 58.8091 19.1698 58.2539C19.1698 58.2539 19.7296 59.5803 20.5805 60.3985Z" fill="white"/>
<path d="M24.8573 56.4525C23.5922 56.2469 22.0251 55.7258 22.0251 55.7258C22.0251 55.7258 22.4672 54.863 23.4466 54.3079C23.4466 54.3082 24.0065 55.6346 24.8573 56.4525Z" fill="white"/>
<path d="M26.9363 55.3112C25.7492 54.8272 24.3391 53.9682 24.3391 53.9682C24.3391 53.9682 24.9634 53.2264 26.0423 52.905C26.0423 52.905 26.2904 54.3233 26.9363 55.3112Z" fill="white"/>
<path d="M25.6777 57.8241C25.6777 57.8241 23.9897 59.7935 23.9427 60.966C23.8958 62.1381 23.1455 66.7805 21.8325 69.5004C24.9403 68.0002 27.1931 65.9469 26.8032 60.3565L25.2088 62.7481L25.6777 57.8241Z" fill="#FAD03D"/>
<path d="M26.8032 60.3563L25.8095 61.8469C25.296 66.8278 21.8325 69.5005 21.8325 69.5005C24.9403 68.0003 27.1931 65.9466 26.8032 60.3563Z" fill="#EBBA0F"/>
<path d="M26.5002 59.0302C27.3517 59.6933 28.5705 60.3619 28.5705 60.3619C28.5705 60.3619 28.8499 59.595 28.6315 58.6727C28.6315 58.6724 27.4922 59.0868 26.5002 59.0302Z" fill="white"/>
<path d="M25.7375 63.8051C26.589 64.4682 27.8078 65.1368 27.8078 65.1368C27.8078 65.1368 28.0869 64.3699 27.8688 63.4476C27.8691 63.4473 26.7298 63.8617 25.7375 63.8051Z" fill="white"/>
<path d="M24.4062 66.348C24.7655 67.3657 25.4309 68.5863 25.4309 68.5863C25.4309 68.5863 26.0797 68.0911 26.3937 67.1968C26.3937 67.1968 25.211 66.9309 24.4062 66.348Z" fill="white"/>
<path d="M42.3522 83.377C40.7205 86.1782 38.5928 89.0142 35.8516 91.8272C35.8516 91.8272 40.3169 92.1666 46.3216 91.5061L49.2474 85.0629C46.0784 84.5217 43.7498 83.847 42.3522 83.377Z" fill="#F32C46"/>
<path d="M46.1746 73.989C45.7405 75.7662 45.1415 77.5887 44.3438 79.4391C45.739 79.7759 47.5824 80.2057 49.3305 80.4153L50.1428 74.5847C49.0908 74.541 47.2876 74.2103 46.1746 73.989Z" fill="#F32C46"/>
<path d="M47.1194 64.8032C47.1754 66.5227 47.1083 68.3364 46.8704 70.2212C46.8914 70.2247 46.9118 70.2285 46.9331 70.232C47.9557 70.4046 49.0194 70.5679 49.8956 70.6703C49.9443 70.6761 49.9915 70.6802 50.0396 70.6851L50.0105 64.8032H47.1194Z" fill="#F32C46"/>
<path d="M47.8879 55.9829L46.0142 57.0385C46.3413 58.3346 46.628 59.7549 46.8294 61.2822C47.0618 61.2878 47.2872 61.2939 47.5255 61.2983C48.1387 61.3099 48.7545 61.3169 49.3009 61.3161C48.8542 58.3847 47.8879 55.9829 47.8879 55.9829Z" fill="#F32C46"/>
<path d="M68.132 36.2984C58.6373 36.3856 47.7179 41.6461 47.7179 41.6461L44.5358 41.3811C43.5412 42.592 42.5177 44.0765 41.9031 45.6321L49.5465 45.9604C49.5465 45.9604 55.7832 40.1456 70.5075 36.3943C69.731 36.3206 68.9365 36.2908 68.132 36.2984Z" fill="#BB192E"/>
<path d="M66.9431 51.144C63.9552 51.137 61.7854 51.5875 61.7854 51.5875L54.0012 51.2122L56.8147 55.4327C56.8147 55.4327 70.8827 51.8689 80.3549 56.089C76.6678 52.0226 71.0372 51.1536 66.9431 51.144Z" fill="#BB192E"/>
<path d="M60.2849 59.653L61.0352 63.8731C61.0352 63.8731 66.5191 67.341 71.5443 73.3445C72.1525 72.5397 72.7258 71.7439 73.2655 70.959C69.4539 66.8566 62.8174 63.0759 62.8174 63.0759L60.2849 59.653Z" fill="#BB192E"/>
<path d="M35.586 15.0327C35.586 15.0327 27.977 21.3826 23.9893 29.5477C24.0846 29.6223 24.1794 29.6958 24.2741 29.7681C25.197 30.4735 26.0802 31.0601 26.8593 31.534C28.0359 28.5169 31.0136 21.5153 35.586 15.0327Z" fill="white"/>
<path d="M26.5219 52.1503C21.4696 53.1583 19.5582 56.6051 19.5582 56.6051C15.9475 56.9335 15.08 59.2312 14.8456 60.0284C14.6111 60.8256 14.9628 62.0917 14.9628 62.0917C12.6418 62.5372 11.2585 61.2711 10.9065 60.427C10.5549 59.5828 9.40601 57.7307 9.40601 57.7307C9.40601 57.7307 10.1563 59.9814 10.1563 61.0131C10.1563 62.0447 11.5162 64.108 15.9242 63.4516C15.9242 63.4516 15.5725 61.8575 15.7367 60.9664C15.9008 60.0753 17.4716 57.731 20.3557 57.1915C20.3554 57.1912 21.0354 53.6038 26.5219 52.1503Z" fill="#BB192E"/>
<path d="M33.0661 48.788C33.3312 57.0775 31.6073 62.648 31.6073 62.648C30.4468 64.7702 30.4136 68.5171 30.4136 68.5171C30.4136 68.5171 28.3908 69.5449 27.5951 69.6776C27.1177 69.7572 26.4363 69.3493 25.9657 69.0096C25.8974 69.0627 25.8321 69.109 25.7712 69.1469C24.7101 69.81 22.5217 70.8049 22.5217 70.8049C22.5217 70.8049 25.4396 72.7282 27.0311 72.3964C28.6226 72.0648 32.2039 69.6111 32.2039 69.6111C32.2039 69.6111 31.8059 65.2344 33.1985 62.648C33.1988 62.648 34.3261 55.088 33.0661 48.788Z" fill="#BB192E"/>
<path d="M38.9953 26.3591C38.9953 26.3591 32.0553 31.8926 28.679 38.9263C28.679 38.9263 32.7346 33.6678 36.0835 31.3135L35.0889 39.4371L37.2443 39.636C37.2441 39.6363 37.9637 33.6742 38.9953 26.3591Z" fill="#F56578"/>
<path d="M33.7429 42.6311L37.2598 45.3041L35.2542 51.4408C35.2542 51.4408 37.9733 48.1914 40.2943 42.9524C40.2943 42.9521 36.4629 43.1936 33.7429 42.6311Z" fill="#BB192E"/>
<path d="M17.3328 48.5393C17.3328 48.5393 18.7088 48.5725 18.7919 48.1911C18.8747 47.8097 19.0902 46.0027 20.0186 44.4608C20.0186 44.4608 18.5431 45.8534 17.9296 47.8596L17.3328 48.5393Z" fill="#BB192E"/>
<path d="M23.9896 29.5477C23.9896 29.5477 18.5969 39.3483 18.3625 40.3799C18.1281 41.4116 18.3625 42.8182 18.3625 42.8182C18.3625 42.8182 18.9253 40.8018 19.2536 40.1921C19.5819 39.5824 24.2243 32.4549 24.2243 32.4549L29.7575 33.0646C29.7572 33.0649 27.0375 31.9393 23.9896 29.5477Z" fill="#F56578"/>
<path d="M23.6382 49.2426C23.6382 49.2426 25.8712 48.0582 26.1695 46.1681C26.4678 44.2781 25.8379 43.4823 25.8379 43.4823L26.501 41.957L24.6442 43.8139C24.6442 43.8141 26.6771 45.7185 23.6382 49.2426Z" fill="#BB192E"/>
<path d="M44.9104 24.4492C44.9104 24.4492 44.0036 24.8166 42.4249 25.5476L42.2459 26.8172C42.0339 28.3195 41.8455 29.7092 41.6636 31.0566C46.317 30.2801 50.4068 29.9626 53.9537 29.9462C54.6512 29.943 55.3268 29.9518 55.9826 29.9707C49.423 26.2734 44.9104 24.4492 44.9104 24.4492ZM76.4007 44.1399C78.1275 46.1886 79.9908 48.7052 81.698 51.6465C81.9709 50.1209 82.0071 49.2613 82.0071 49.2613C80.164 47.4535 78.2856 45.7468 76.4007 44.1399ZM13.2023 44.3268C11.3906 45.8795 9.58541 47.5232 7.81372 49.2613C7.81372 49.2613 7.88837 51.0948 8.67478 54.1769C9.22326 53.7045 9.85659 53.1001 10.4549 52.4816L11.6974 49.4316C11.3976 48.2375 11.7656 47.7048 11.9225 47.1899C12.1091 46.5769 12.336 46.0684 12.5681 45.5861C12.8194 45.0633 12.9952 44.6912 13.2023 44.3268ZM39.9692 50.4469C38.7142 52.4023 37.7723 53.5468 37.7723 53.5468L36.9486 54.5312C37.0667 59.2916 36.4456 63.1318 36.4456 63.1318L36.361 63.699C35.239 65.9276 35.4784 69.3546 35.6475 71.2307C33.0667 72.9452 30.2319 75.054 27.7009 75.6098C25.2725 76.1157 23.9403 75.2429 22.7757 74.6918C21.735 74.1993 21.0057 73.7302 20.8419 73.6235L19.1297 74.4501C22.8066 79.1117 27.677 84.0402 34.1249 88.8817C43.486 81.2814 46.8293 61.2823 40.066 50.609L39.9692 50.4469Z" fill="white"/>
<path d="M53.9686 33.229C50.1616 33.2465 45.6539 33.6276 40.4019 34.6123C40.4019 34.6123 42.557 34.896 45.267 35.2812C49.8149 34.4324 59.6665 33.2882 70.5066 36.3939C70.5034 36.3919 65.3863 33.1763 53.9686 33.229Z" fill="#F56578"/>
<path d="M68.0145 40.3655L66.5059 40.5282C68.9826 42.4398 75.718 48.0748 80.3539 56.0888C75.518 46.2141 68.0145 40.3655 68.0145 40.3655Z" fill="#F56578"/>
<path d="M20.5259 48.8845C20.5259 48.8845 23.5269 46.7979 22.3781 44.0547C22.3783 44.0544 20.0101 46.2349 20.5259 48.8845Z" fill="white"/>
</svg>
