<svg width="100" height="92" viewBox="0 0 100 92" fill="none" xmlns="http://www.w3.org/2000/svg">
<path d="M92.9985 42.6168C93.0092 44.1604 92.8288 47.2138 91.4795 50.0357L93.5174 53.9446L89.3314 59.925C88.9961 60.827 87.8356 63.7572 85.9981 66.3275C86.9503 68.6244 88.4744 73.7599 85.4629 78.1501C79.9103 86.2414 69.3082 90.2921 68.8595 90.4609L66.8305 91.223L66.2637 89.1339C66.253 89.0953 65.1849 85.2584 62.4245 80.3456C61.8647 79.3488 61.2058 78.2603 60.4437 77.1179C55.264 68.7555 49.7781 62.9217 49.7781 62.9217L45.7125 60.5397C22.092 53.2905 0.791404 61.942 0.334811 62.1284C0.329696 62.1303 0.326904 62.1312 0.326904 62.1312L1.26752 58.7063C1.38702 58.2706 1.9752 56.6447 4.51017 54.0511C7.80582 50.6792 12.9334 47.1353 19.7488 43.516C26.2318 40.0734 31.106 33.6751 32.785 26.4003C34.0046 21.1211 34.0715 12.9215 27.47 3.84216L25.1247 0.617188L29.1118 0.710645C29.2992 0.71576 33.7781 0.831069 40.3746 1.8777C45.73 2.72672 53.4195 4.36013 61.1863 7.4233C61.0984 7.16897 60.9942 6.92161 60.8687 6.69191L58.5825 2.48401L63.1689 3.86122C63.426 3.93934 69.5565 5.80244 77.0866 9.89783C81.5191 12.3091 85.5168 14.9989 88.9673 17.8924C93.3231 21.5442 96.82 25.5359 99.3615 29.7573L99.807 30.4984L99.5643 31.3284C99.4787 31.6223 97.5054 38.2215 92.9985 42.6168Z" fill="white"/>
<path d="M90.9947 41.7835C90.9947 41.7835 91.416 46.4154 89.2507 50.0245L91.2156 53.7944L87.5656 59.0075C87.5656 59.0075 86.1373 63.1424 83.7064 66.0754C83.7064 66.0754 87.1253 72.2413 83.8366 77.0336C78.5719 84.7055 68.166 88.614 68.166 88.614C68.166 88.614 63.8674 72.7709 49.376 63.1378H49.375C48.1034 62.292 46.7536 61.4941 45.321 60.76C35.5382 55.743 21.9102 53.6507 3.16895 59.2279C3.16895 59.2279 4.67263 53.7535 20.6743 45.2572C33.1083 38.6538 41.9691 20.4278 29.065 2.68201C29.065 2.68201 46.9014 3.1028 63.5647 10.5622C63.5647 10.5622 63.7452 7.85518 62.6013 5.75029C62.6013 5.75029 87.0244 13.0893 97.6721 30.775C97.6725 30.775 95.6276 37.7532 90.9947 41.7835Z" fill="#010C16"/>
<path d="M95.3059 30.1738C84.8489 16.9875 70.4825 12.4881 70.4825 12.4881C65.3125 23.1799 55.0941 25.9543 54.6175 26.0784C54.6124 26.0803 54.6077 26.0812 54.6026 26.0812C54.6017 26.0821 54.6017 26.0822 54.6007 26.0822C54.6528 26.0301 54.7054 25.9775 54.7565 25.9255C58.8398 21.7747 60.2045 17.6896 60.6522 15.189C60.9252 13.6639 60.8573 12.7284 60.8573 12.7284C60.8573 12.7284 60.8554 12.7275 60.8512 12.7256C49.6624 6.71276 34.6901 5.69031 34.6901 5.69031C34.6901 5.69031 41.1861 11.8255 38.1192 26.2626C37.9918 26.8619 37.8807 27.4436 37.7859 28.0076V28.0085C37.5352 29.4861 37.3934 30.8429 37.3493 32.089V32.0899C37.0024 41.8183 42.5703 44.9113 48.8566 47.2872C49.2235 47.4253 49.5782 47.5741 49.9214 47.7317C49.9251 47.7336 49.9283 47.7345 49.9321 47.7368C56.4731 50.7289 59.01 56.8403 59.0514 56.9412C34.9231 39.9622 13.3893 53.1355 12.9792 53.3889C12.9755 53.3917 12.9731 53.3926 12.9731 53.3926L12.982 53.3917C13.1326 53.3708 15.2533 53.0932 18.4192 53.009C25.6113 52.8189 36.5849 54.0543 45.321 60.76C46.7536 61.4946 48.1034 62.292 49.375 63.1378C49.3788 63.1387 49.3829 63.1396 49.3867 63.1415C49.8284 63.2963 64.0311 68.3816 70.661 84.2461C70.6619 84.248 70.6619 84.2498 70.6629 84.2522C74.9633 82.4774 76.1908 81.1002 76.1908 81.1002C71.8992 77.3312 70.2421 72.0102 70.2421 72.0102C72.678 75.9805 78.5361 78.4922 78.5361 78.4922C80.7009 78.2504 82.2725 76.492 82.2725 76.492C82.2725 76.492 82.2716 76.492 82.2688 76.491C74.0464 73.8979 70.1216 68.1152 66.8162 59.3139V59.313C66.5917 58.7165 66.3708 58.1064 66.1509 57.4824C63.1942 49.0727 54.4664 47.2212 49.1718 41.9271C43.934 36.6893 48.9608 29.0091 49.0654 28.8515C49.0663 28.8496 49.0672 28.8487 49.0672 28.8487C49.9093 42.5641 60.6169 41.2413 60.6169 41.2413C58.5711 36.0072 58.5111 30.2933 58.5111 30.2933C60.4807 25.6372 66.8032 22.5215 66.9018 22.4731C63.2039 27.7072 65.008 32.4889 65.008 32.4889C75.3585 23.1199 85.9745 25.222 86.2093 25.2694C86.2103 25.2694 86.2121 25.2703 86.2131 25.2703C71.775 29.5108 70.7228 43.5271 70.7228 43.5271C81.7913 25.0811 93.7826 30.3328 93.7826 30.3328L91.8168 31.3158C92.8471 34.1688 91.2737 38.1382 91.236 38.2316C94.0342 35.4353 95.3059 30.1738 95.3059 30.1738ZM49.0444 23.9689C47.8941 24.511 46.6034 24.9862 45.1569 25.361L45.1597 25.3591C45.3438 25.2369 54.4357 19.1077 44.1637 10.4427C44.1637 10.4427 53.277 10.9239 58.0842 14.1666C58.0842 14.1666 57.331 17.1214 54.4692 20.1083C53.1528 21.4823 51.3879 22.8646 49.0444 23.9689Z" fill="#5E15D5"/>
<path d="M88.303 47.5528C88.303 47.5528 83.6901 47.2571 81.0026 42.866C81.0026 42.866 79.9379 39.5536 80.9771 35.3912C80.9822 35.3685 80.9868 35.3489 80.991 35.3341C80.9938 35.3224 80.997 35.3103 80.9998 35.2987C81.0017 35.2908 81.0026 35.2871 81.0026 35.2871C81.0026 35.2871 81.4839 38.6037 83.7887 40.2468C83.7887 40.2468 86.9286 40.039 88.8238 32.9404C88.8238 32.9404 90.267 42.3852 88.303 47.5528Z" fill="#5E15D5"/>
<path d="M75.2519 50.6368C72.809 49.0871 71.468 46.1992 71.468 46.1992C73.0131 42.4726 75.6796 40.6597 75.6796 40.6597C74.0374 46.6507 75.2519 50.6368 75.2519 50.6368Z" fill="#5E15D5"/>
<path d="M78.1254 63.6792L78.1217 63.6801C78.1217 63.6801 78.1226 63.6801 78.1235 63.681C80.7092 64.3417 83.2358 63.4397 83.2358 63.4397C82.4528 67.1692 81.19 68.6729 81.19 68.6729C64.9474 67.2296 67.7149 46.5053 67.7149 46.5053C68.4361 45.2425 69.5803 44.3698 69.5803 44.3698C70.2415 54.717 85.701 58.9273 85.701 58.9273C83.4083 61.9267 78.3542 63.6038 78.1301 63.6787C78.1273 63.6782 78.1263 63.6792 78.1254 63.6792Z" fill="#5E15D5"/>
<path d="M89.4012 53.4536L86.7848 57.4239C80.9496 55.4385 77.0392 52.1898 77.0392 52.1898C76.0279 47.2357 76.9002 42.7055 77.2048 41.3864C77.2145 41.3432 77.2234 41.3037 77.2322 41.2683C77.235 41.2544 77.2382 41.2409 77.241 41.2279C77.248 41.2004 77.254 41.1758 77.2596 41.154C77.2624 41.1433 77.2647 41.1321 77.2675 41.1223C77.2754 41.0907 77.2824 41.0651 77.2871 41.0456C77.2898 41.0359 77.2922 41.0279 77.2931 41.021C77.295 41.0149 77.2968 41.0093 77.2982 41.0061C77.2996 41.0028 77.2991 41.001 77.2991 41.001C77.3996 44.9722 79.3399 48.5961 79.3399 48.5961C78.6624 48.3999 77.4568 47.4063 77.4568 47.4063C77.9715 50.3253 81.129 50.6369 81.129 50.6369C80.3265 51.2088 78.1812 51.3478 78.1812 51.3478C82.6778 53.0198 86.6221 51.4868 86.9439 51.3566C86.9508 51.3548 86.9578 51.3506 86.9648 51.3478L89.4012 53.4536Z" fill="#FFCFA4"/>
<path d="M84.9277 48.8072C84.9277 48.8072 82.947 49.1996 81.5423 48.684C81.5423 48.684 81.5423 48.684 81.5414 48.684C80.4729 48.2916 79.7373 47.3737 80.4617 45.3577L84.9277 48.8072Z" fill="#F32C46"/>
<path d="M82.6788 74.3058C82.6788 74.3058 81.3291 74.2356 79.6678 73.4628C78.0804 72.7254 76.2084 71.3431 74.9609 68.7639C74.9619 68.7648 74.9637 68.7667 74.9661 68.7676C75.12 68.8704 78.2492 70.9325 82.2134 70.1509C82.2134 70.1514 83.3079 71.297 82.6788 74.3058Z" fill="#5E15D5"/>
<path d="M86.2093 25.2699C85.9744 25.2225 75.3589 23.1209 65.0079 32.4894C65.0079 32.4894 63.2039 27.7077 66.9017 22.4737C66.8031 22.522 60.4806 25.6373 58.511 30.2939C58.511 30.2939 58.571 36.0078 60.6168 41.2419C60.6168 41.2419 49.9092 42.5651 49.0671 28.8492C49.0671 28.8492 51.007 35.5563 55.97 36.9098C55.97 36.9098 54.7295 33.4798 56.3838 29.2998C56.3838 29.2998 61.5639 22.2923 72.2116 19.4049C72.2116 19.4049 70.2564 22.4732 69.5952 26.0223C69.5952 26.0223 78.0747 22.7768 86.2093 25.2699Z" fill="#440F9A"/>
<path d="M91.2358 38.2326C91.2734 38.1391 92.8469 34.1697 91.8165 31.3167L93.7824 30.3338C93.7824 30.3338 81.791 25.0821 70.7226 43.528C70.7226 43.528 77.5352 27.8872 91.6115 27.8872C91.6115 27.8872 80.112 16.9796 71.5697 15.0147C71.5697 15.0147 65.0296 24.0275 54.6177 26.0794C55.0938 25.9553 65.3123 23.1808 70.4826 12.489C70.4826 12.489 84.849 16.9885 95.306 30.1748C95.3056 30.1739 94.0339 35.4354 91.2358 38.2326Z" fill="#8441F2"/>
<path d="M82.2723 76.4934C82.2723 76.4934 80.7008 78.2524 78.5359 78.4937C78.5359 78.4937 72.6778 75.9815 70.2419 72.0116C70.2419 72.0116 71.899 77.3327 76.1906 81.1016C76.1906 81.1016 74.9631 82.4789 70.6627 84.2536C70.6617 84.2518 70.6617 84.2499 70.6608 84.2476C64.0309 68.3826 49.8282 63.2978 49.3865 63.1429C65.762 67.8386 71.0384 81.7266 71.0384 81.7266C72.4974 81.568 73.2948 80.5228 73.2948 80.5228C68.0008 74.3058 68.562 67.309 68.562 67.309C76.9034 77.6832 82.1184 76.466 82.2681 76.4925C82.2714 76.4934 82.2723 76.4934 82.2723 76.4934Z" fill="#440F9A"/>
<path d="M66.8156 59.3144C64.07 53.1105 59.3084 50.6369 49.3861 45.1178C38.8644 39.2653 48.909 29.0026 49.0648 28.8529C48.9602 29.0105 43.9334 36.6908 49.1712 41.9286C54.4653 47.2226 63.1936 49.0741 66.1503 57.4839C66.3702 58.1079 66.5911 58.7179 66.8156 59.3144Z" fill="#8441F2"/>
<path d="M63.3693 62.1753C33.2309 40.2463 12.9818 53.3922 12.9818 53.3922L12.979 53.3894C13.3891 53.136 34.9229 39.9627 59.0512 56.9417C59.0098 56.8413 56.473 50.7298 49.9319 47.7373C61.6489 52.5139 63.3693 62.1753 63.3693 62.1753Z" fill="#440F9A"/>
<path d="M45.16 25.3587L45.1572 25.3606C45.8337 18.8934 44.3863 14.307 44.3407 14.2015C46.4349 17.3079 46.7362 19.8661 46.7362 19.8661C48.0577 14.9724 44.1641 10.4423 44.1641 10.4423C54.436 19.1073 45.3446 25.2364 45.16 25.3587Z" fill="#440F9A"/>
<path d="M60.8571 12.7289L60.6521 15.1895C60.2043 17.6896 58.8401 21.7752 54.7564 25.9259C52.5097 26.4239 49.3981 26.4601 45.1567 25.361C45.1567 25.361 46.6455 25.215 49.0443 23.9689C50.5438 23.1901 52.3995 21.9812 54.4695 20.1083C56.4456 18.3205 58.6151 15.9278 60.8571 12.7289Z" fill="#440F9A"/>
<path d="M40.3597 9.14931C40.3597 9.14931 41.7378 20.188 37.7857 28.0082C37.8805 27.4442 37.9916 26.8625 38.119 26.2632C41.1859 11.8261 34.6899 5.69092 34.6899 5.69092C34.6899 5.69092 49.6626 6.71337 60.851 12.7263C60.5772 12.6058 50.9697 8.40769 40.3597 9.14931Z" fill="#8441F2"/>
<path d="M81.19 68.6724C82.0153 65.2721 78.2314 63.7243 78.124 63.681C80.7101 64.3417 83.2358 63.4397 83.2358 63.4397C82.4528 67.1692 81.19 68.6724 81.19 68.6724Z" fill="#A49B9E"/>
<path d="M85.7015 58.9272C83.4083 61.9263 78.3547 63.6043 78.1301 63.6782C78.2849 63.5815 81.4071 61.6278 82.2729 59.3146C82.2729 59.3146 69.5808 56.3402 69.5808 44.3698C70.242 54.7166 85.7015 58.9272 85.7015 58.9272Z" fill="#8441F2"/>
<path d="M88.8237 32.9404C88.4108 41.0619 83.5208 42.2639 83.5208 42.2639C80.3609 39.104 80.8463 35.9924 80.977 35.3912C80.9821 35.3685 80.9867 35.3489 80.9909 35.3341C80.9937 35.3224 80.997 35.3103 80.9997 35.2987C81.0016 35.2908 81.0025 35.2871 81.0025 35.2871C81.0025 35.2871 81.4838 38.6037 83.7886 40.2468C83.7886 40.2468 86.9289 40.0385 88.8237 32.9404Z" fill="#440F9A"/>
<path d="M88.3028 47.5528C88.3028 47.5528 83.6899 47.2571 81.0024 42.866C84.0024 45.6483 87.3771 46.1412 87.3771 46.1412C89.3174 41.2767 88.8236 32.9404 88.8236 32.9404C88.8236 32.9404 90.2668 42.3852 88.3028 47.5528Z" fill="#8441F2"/>
<path d="M82.6786 74.3058C82.6786 74.3058 81.3288 74.2356 79.6675 73.4628C79.6861 73.4609 79.7061 73.4591 79.7247 73.4558C80.9829 73.294 81.0526 71.5127 79.8172 71.2287C76.9768 70.5768 75.0811 68.8745 74.9658 68.7681C75.1197 68.8708 78.2489 70.9329 82.2132 70.1513C82.2132 70.1513 83.3077 71.297 82.6786 74.3058Z" fill="#440F9A"/>
<path d="M63.3694 65.3037C63.3694 65.3037 49.6181 51.671 24.5088 51.6482C24.5088 51.6482 49.3866 53.6331 65.0986 70.6721L63.3694 65.3037Z" fill="#8441F2"/>
<path d="M72.9331 45.9333C72.9331 45.9333 72.4923 47.5532 75.2519 50.6368C72.809 49.0871 71.468 46.1992 71.468 46.1992C73.0131 42.4726 75.6796 40.6597 75.6796 40.6597C75.6796 40.6597 72.9331 43.8884 72.9331 45.9333Z" fill="#440F9A"/>
<path d="M86.9444 51.3566C80.8064 54.1883 77.2495 51.2878 77.2495 51.2878C78.4481 51.0879 78.9489 50.6373 78.9489 50.6373C75.9675 48.0001 76.8765 42.8343 77.2048 41.3869C77.2146 41.3437 77.2234 41.3042 77.2322 41.2688C77.235 41.2549 77.2383 41.2414 77.2411 41.2284C77.2481 41.2009 77.2541 41.1763 77.2597 41.1544C77.2625 41.1437 77.2648 41.1326 77.2676 41.1228C77.2755 41.0912 77.2825 41.0656 77.2871 41.0461C77.2899 41.0363 77.2922 41.0284 77.2932 41.0215C77.295 41.0154 77.2969 41.0098 77.2983 41.0066C77.2997 41.0033 77.2992 41.0015 77.2992 41.0015C77.3996 44.9727 79.3399 48.5966 79.3399 48.5966C78.6625 48.4004 77.4568 47.4068 77.4568 47.4068C77.9715 50.3258 81.1291 50.6373 81.1291 50.6373C80.3266 51.2092 78.1812 51.3483 78.1812 51.3483C82.6788 53.0198 86.6231 51.4868 86.9444 51.3566Z" fill="#C57559"/>
<path d="M86.7847 57.4234L88.1326 53.673L86.9446 51.3561C86.9516 51.3543 86.9586 51.3501 86.9655 51.3473L89.4015 53.4531L86.7847 57.4234Z" fill="#FBEADF"/>
<path d="M81.5423 48.684C81.5423 48.684 81.5423 48.684 81.5414 48.684C80.4729 48.2916 79.7373 47.3737 80.4617 45.3577L84.9277 48.8072L81.002 46.4903C81.002 46.4908 80.5217 47.6639 81.5423 48.684Z" fill="#DD1E37"/>
<path d="M81.1905 68.6729C64.9479 67.2296 67.7154 46.5053 67.7154 46.5053C68.4365 45.2425 69.5808 44.3698 69.5808 44.3698C67.6382 64.5538 76.0336 67.4216 81.1905 68.6729Z" fill="#440F9A"/>
</svg>
