<svg width="222" height="82" viewBox="0 0 222 82" fill="none" xmlns="http://www.w3.org/2000/svg">
<path d="M86.3573 30.6332H101.318V34.0333H90.3783V39.2665H100.46V42.6075H90.3783V47.9294H101.318V51.3295H86.3573V30.6332ZM104.731 48.1363V45.1797H108.693V46.9241L109.669 47.8998H115.789L116.794 46.8946V43.4649L115.818 42.4892H107.983L104.79 39.2961V33.8263L107.983 30.6332H117.326L120.519 33.8263V36.8125H116.557V35.0386L115.582 34.0629H109.728L108.752 35.0386V38.0839L109.728 39.0595H117.563L120.756 42.2527V48.0772L117.504 51.3295H107.924L104.731 48.1363ZM124.887 30.6332H137.866L141.03 33.8263V41.07L137.837 44.2927H128.908V51.3295H124.887V30.6332ZM136.033 40.9222L137.068 39.8874V35.0386L136.033 34.0037H128.908V40.9222H136.033ZM144.592 47.9294V34.0333L147.992 30.6332H158.636L162.036 34.0333V47.9294L158.636 51.3295H147.992L144.592 47.9294ZM156.507 47.8998L158.015 46.3919V35.5707L156.507 34.0629H150.121L148.613 35.5707V46.3919L150.121 47.8998H156.507ZM182.738 44.4701V51.3295H178.717V45.3867L176.943 43.4058H170.498V51.3295H166.477V30.6332H179.456L182.62 33.8263V40.0944L180.609 42.1344L182.738 44.4701ZM170.498 40.0944H177.623L178.658 39.0595V35.0386L177.623 34.0037H170.498V40.0944ZM191.583 34.0333H185.404V30.6332H201.783V34.0333H195.604V51.3295H191.583V34.0333ZM203.841 48.1363V45.1797H207.803V46.9241L208.778 47.8998H214.899L215.904 46.8946V43.4649L214.928 42.4892H207.093L203.9 39.2961V33.8263L207.093 30.6332H216.436L219.629 33.8263V36.8125H215.667V35.0386L214.692 34.0629H208.838L207.862 35.0386V38.0839L208.838 39.0595H216.673L219.866 42.2527V48.0772L216.613 51.3295H207.034L203.841 48.1363Z" fill="white"/>
<path d="M35.2175 81.4291L34.4467 80.9851C26.8649 76.6184 20.3416 71.6298 15.058 66.1578C10.8095 61.7578 7.34744 57.0362 4.76796 52.1237C0.33201 43.676 0.0381851 37.6024 0.0278955 37.3479L0 36.6629L0.489558 36.1827C4.10897 32.6321 8.18089 29.2119 12.5967 26.0125C12.744 25.734 12.8928 25.4539 13.0421 25.1745C14.0503 23.2867 15.0166 21.5269 15.1606 21.2646C18.7151 14.0555 24.928 8.90437 25.2739 8.62106L35.8013 0L34.5892 4.5624L31.2293 14.8858C33.3195 13.8845 34.5649 13.3787 34.6393 13.3485L35.2178 13.1149L35.7965 13.3485C35.9863 13.4254 40.521 15.2704 47.0203 19.0131C53.0114 22.4633 61.852 28.2426 69.946 36.1825L70.4355 36.6626L70.4076 37.3477C70.4035 37.4515 70.2903 39.9379 69.0862 43.8864C67.993 47.4713 65.74 53.0455 61.2135 59.2428L61.112 59.3813C55.0821 67.5883 46.6298 74.8559 35.9883 80.9846L35.2175 81.4291ZM3.17582 37.8784C3.25219 38.5221 3.41842 39.6169 3.77238 41.0588C4.31339 43.2631 5.4162 46.7542 7.59782 50.868C10.052 55.496 13.3444 59.9543 17.3834 64.1191C22.2678 69.1557 28.2645 73.776 35.2178 77.8602C45.1227 72.0432 52.9933 65.2148 58.6213 57.555L58.7203 57.4199C61.0546 54.2237 64.2295 49.1462 66.0915 43.1167C66.8552 40.6438 67.1493 38.8004 67.259 37.8782C59.5405 30.4274 51.1849 24.9762 45.4785 21.6902C40.4753 18.8089 36.624 17.0663 35.2178 16.4578C34.2553 16.8744 32.1494 17.8208 29.3312 19.2904L25.9782 21.0387L29.9916 8.70727L27.2335 11.0089C27.1743 11.0574 21.1885 16.0037 17.9167 22.6599L17.8837 22.723C17.8412 22.8005 16.8276 24.6433 15.7666 26.6299C15.5626 27.0119 15.3594 27.3952 15.16 27.7736L14.9908 28.0946L14.696 28.3068C10.5057 31.3226 6.63311 34.5405 3.17582 37.8784Z" fill="white"/>
<path d="M33.1202 4.08453L26.2569 9.81216C26.2569 9.81216 19.9999 14.9206 16.5307 21.9781C16.49 22.0522 15.4727 23.9015 14.4044 25.9018C14.1991 26.2862 13.9947 26.672 13.7937 27.0529C9.778 29.9436 5.58169 33.3508 1.57104 37.2851C1.57104 37.2851 2.52706 60.8194 35.2177 79.6465C47.1813 72.7564 54.8943 65.2359 59.866 58.4692L59.9664 58.332C68.4823 46.6721 68.8643 37.2851 68.8643 37.2851C53.4199 22.1349 35.2177 14.7804 35.2177 14.7804C35.2177 14.7804 32.6464 15.8194 28.6173 17.9203L33.1202 4.08453Z" fill="#000512"/>
<path d="M30.5794 20.6703C30.5794 20.6703 25.1372 25.0096 22.4895 30.5252L23.3353 25.9288C23.3353 25.9288 21.2026 25.0462 18.8123 23.1707C18.8123 23.1707 14.5835 30.8561 14.3996 31.6651C14.2158 32.4741 14.3996 33.5771 14.3996 33.5771C14.3996 33.5771 13.1494 35.2319 12.9289 35.526C12.7083 35.8202 11.5316 37.8427 11.7523 38.3942C11.9729 38.9458 13.499 39.2032 14.6939 38.8907L13.4436 38.4862C13.4436 38.4862 15.0616 38.2838 15.2272 38.0449C15.3927 37.8059 15.0248 34.7906 18.7757 32.5843L18.1505 33.7242C18.1505 33.7242 20.0628 36.7026 16.0179 39.2769L16.9922 39.3871C16.9922 39.3871 14.6203 40.3063 12.3404 40.288C12.3404 40.288 9.54572 43.9467 7.37622 45.2706C7.37622 45.2706 7.96455 47.0357 7.96455 47.8446C7.96455 48.6536 9.03101 50.2716 12.4876 49.7569C12.4876 49.7569 12.2119 48.5068 12.3406 47.8081C12.4693 47.1093 13.7011 45.2709 15.9627 44.8479C15.9627 44.8479 16.496 42.0347 20.7984 40.8948L21.6074 38.5415C21.6074 38.5415 23.446 40.6742 23.1517 46.0431C22.8574 51.4117 21.0419 53.7035 20.21 54.2235C19.378 54.7434 17.6619 55.5236 17.6619 55.5236C17.6619 55.5236 19.9501 57.0318 21.1981 56.7716C22.4461 56.5116 25.2545 54.5875 25.2545 54.5875C25.2545 54.5875 24.9423 51.1554 26.0344 49.1272C26.0344 49.1272 26.9184 43.1988 25.9304 38.2584L27.6464 40.3385C27.6464 40.3385 29.7787 37.7904 31.5988 33.6821C31.5988 33.6821 28.5942 33.8714 26.4613 33.4301L29.2066 31.0818C29.2061 31.082 29.7704 26.4067 30.5794 20.6703ZM28.2961 24.5555L27.5161 30.9258L26.7881 29.7297L23.824 31.5498C23.8237 31.5498 26.06 26.9216 28.2961 24.5555ZM9.65273 44.4079C10.0428 45.149 10.1727 46.046 9.7698 46.2411C9.36668 46.4361 8.69077 45.8901 9.02873 45.5C9.36668 45.1099 9.65273 44.4079 9.65273 44.4079Z" fill="#F32C46"/>
<path d="M27.9057 11.7885C27.9057 11.7885 21.9389 16.7679 18.8118 23.1708C18.8865 23.2293 18.9609 23.2869 19.0352 23.3436C20.1869 24.224 21.2614 24.869 22.0493 25.2957L23.537 25.2115L27.9057 11.7885Z" fill="#B4BBCC"/>
<path d="M32.8591 35.7837L38.8528 36.0411C38.8528 36.0411 43.7436 31.4815 55.2901 28.5396C55.2901 28.5396 48.1562 24.0533 31.6824 27.1423C31.6824 27.1423 38.9633 28.0983 42.4199 28.7602L37.1246 30.1576C37.1246 30.1576 34.0357 32.8052 32.8591 35.7837Z" fill="#F32C46"/>
<path d="M63.0122 43.9837C55.5843 40.6741 44.5525 43.469 44.5525 43.469L42.3462 40.1594C42.3462 40.1594 46.0031 38.5702 54.1678 38.6224C54.1678 38.6224 52.1396 35.5542 48.0313 32.2259L53.3357 31.6538C53.3357 31.6538 59.2197 36.2402 63.0122 43.9837Z" fill="#F32C46"/>
<path d="M56.2464 44.131C56.7611 48.4703 57.0554 53.1033 57.0554 53.1033C53.0841 50.088 47.2739 46.7784 47.2739 46.7784L47.8623 50.0878C47.8623 50.0878 52.1626 52.807 56.1031 57.515C58.0332 54.9616 59.5101 52.5239 60.6401 50.2981C60.7494 47.4838 60.4382 45.8222 60.4382 45.8222L56.2464 44.131Z" fill="#F32C46"/>
<path d="M33.6262 38.3624C33.6262 38.3624 35.9549 42.2405 36.7225 48.0563C36.9047 48.0607 37.0815 48.0655 37.2683 48.0689C37.9458 48.0817 38.6325 48.0881 39.1554 48.0788C39.417 48.0742 39.6392 48.0653 39.7851 48.0534C39.8144 48.0511 39.8208 48.0493 39.843 48.047C39.0912 44.7045 38.3066 43.4068 38.3066 43.4068L39.0255 41.5664C35.8586 39.0557 33.6262 38.3624 33.6262 38.3624ZM44.0875 46.56C43.2907 47.2197 42.4913 47.8803 41.8648 48.3945C41.5373 48.6634 41.257 48.8925 41.0466 49.0627C40.8363 49.2328 40.7741 49.2943 40.6074 49.4054C40.3655 49.5666 40.2941 49.5408 40.1988 49.5577C40.1034 49.5746 40.0122 49.584 39.9102 49.5922C39.7062 49.6089 39.4627 49.6176 39.1833 49.6226C38.624 49.6327 37.9264 49.6263 37.2388 49.613C37.1172 49.6108 37.004 49.6076 36.8842 49.6048C37.014 51.3031 36.998 53.1371 36.7547 55.0656C36.7712 55.0683 36.7872 55.0713 36.8039 55.0741C37.6058 55.2094 38.4399 55.3375 39.1271 55.4177C39.8139 55.498 40.4375 55.4955 40.4508 55.493C40.4576 55.4916 40.6881 55.4042 41.0201 55.2526C40.8834 53.2931 40.5953 50.6351 40.5953 50.6351C43.5589 48.347 44.0875 46.56 44.0875 46.56ZM48.1066 52.2273C47.1838 53.0934 46.1178 53.9075 45.0843 54.6241C44.1625 55.2629 43.2685 55.8144 42.5222 56.2258C41.7758 56.6374 41.2737 56.9083 40.7391 57.0101C40.2063 57.1116 39.679 57.0375 38.9473 56.952C38.2156 56.8665 37.3634 56.7348 36.5467 56.5969C36.5366 56.5953 36.5268 56.5935 36.5167 56.5917C36.1742 58.4307 35.6149 60.3428 34.7732 62.2941C36.4998 62.711 39.1021 63.3105 40.9039 63.1246L41.1326 58.2878C45.7659 55.5302 48.1066 52.2273 48.1066 52.2273ZM51.4567 58.637C50.1211 59.7549 48.4053 60.8568 46.7356 61.8494C45.4444 62.617 44.1897 63.2954 43.1816 63.7971C42.6776 64.0479 42.2359 64.2542 41.875 64.4074C41.5142 64.5608 41.2927 64.6632 40.9693 64.7117C40.6922 64.7533 40.4622 64.7344 40.1478 64.709C39.8334 64.6836 39.4632 64.6399 39.0523 64.5839C38.2305 64.4719 37.2489 64.3097 36.3009 64.143C35.4907 64.0006 34.735 63.8595 34.1009 63.739C32.7377 66.4651 30.8016 69.2508 28.114 72.0086C28.114 72.0086 33.1568 72.3932 39.2796 71.3437L40.7286 66.7824C49.1123 62.9582 51.4567 58.637 51.4567 58.637Z" fill="#BB192E"/>
<path d="M14.9963 48.6331C13.9952 48.7241 12.9681 48.6201 12.9681 48.6201C12.9681 48.6201 12.8771 47.9181 13.3451 47.2811C13.3451 47.2811 14.19 48.1781 14.9963 48.6331Z" fill="white"/>
<path d="M16.1387 47.3633C15.1465 47.2021 13.9177 46.7935 13.9177 46.7935C13.9177 46.7935 14.2644 46.1169 15.0324 45.6815C15.0324 45.6815 15.4715 46.7217 16.1387 47.3633Z" fill="white"/>
<path d="M19.4927 44.2689C18.5005 44.1077 17.2717 43.6991 17.2717 43.6991C17.2717 43.6991 17.6184 43.0225 18.3864 42.5871C18.3864 42.5873 18.8255 43.6275 19.4927 44.2689Z" fill="white"/>
<path d="M21.1228 43.3739C20.192 42.9944 19.0862 42.3207 19.0862 42.3207C19.0862 42.3207 19.5757 41.739 20.4218 41.4871C20.4218 41.4871 20.6164 42.5992 21.1228 43.3739Z" fill="white"/>
<path d="M20.1357 45.3445C20.1357 45.3445 18.812 46.8889 18.7752 47.8083C18.7383 48.7275 18.15 52.368 17.1204 54.5009C19.5574 53.3244 21.324 51.7142 21.0183 47.3304L19.768 49.2059L20.1357 45.3445Z" fill="#FAD03D"/>
<path d="M21.0183 47.3302L20.239 48.4991C19.8364 52.405 17.1204 54.5009 17.1204 54.5009C19.5574 53.3244 21.324 51.714 21.0183 47.3302Z" fill="#EBA00F"/>
<path d="M20.7808 46.2903C21.4484 46.8103 22.4042 47.3346 22.4042 47.3346C22.4042 47.3346 22.6233 46.7333 22.452 46.01C22.452 46.0098 21.5587 46.3347 20.7808 46.2903Z" fill="white"/>
<path d="M20.1829 50.0347C20.8505 50.5547 21.8063 51.079 21.8063 51.079C21.8063 51.079 22.0251 50.4776 21.8541 49.7544C21.8543 49.7542 20.961 50.0791 20.1829 50.0347Z" fill="white"/>
<path d="M19.1387 52.0288C19.4204 52.8268 19.9422 53.784 19.9422 53.784C19.9422 53.784 20.4509 53.3957 20.6972 52.6944C20.6972 52.6944 19.7698 52.4859 19.1387 52.0288Z" fill="white"/>
<path d="M33.2117 65.3824C31.9321 67.5791 30.2636 69.803 28.114 72.0089C28.114 72.0089 31.6157 72.275 36.3244 71.7571L38.6187 66.7045C36.1337 66.2801 34.3076 65.751 33.2117 65.3824Z" fill="#F32C46"/>
<path d="M36.2092 58.0207C35.8687 59.4144 35.399 60.8435 34.7734 62.2945C35.8676 62.5586 37.3131 62.8957 38.6839 63.0601L39.321 58.4878C38.496 58.4535 37.082 58.1942 36.2092 58.0207Z" fill="#F32C46"/>
<path d="M36.9499 50.8174C36.9938 52.1658 36.9412 53.5881 36.7546 55.0661C36.7711 55.0689 36.7871 55.0718 36.8038 55.0746C37.6057 55.2099 38.4398 55.338 39.127 55.4183C39.1651 55.4228 39.2022 55.426 39.2399 55.4299L39.217 50.8174H36.9499Z" fill="#F32C46"/>
<path d="M37.5529 43.9006L36.0835 44.7284C36.34 45.7448 36.5648 46.8585 36.7228 48.0563C36.9051 48.0606 37.0818 48.0654 37.2686 48.0688C37.7495 48.078 38.2324 48.0835 38.6609 48.0828C38.3106 45.7841 37.5529 43.9006 37.5529 43.9006Z" fill="#F32C46"/>
<path d="M53.4275 28.4645C45.982 28.5328 37.4193 32.658 37.4193 32.658L34.9239 32.4502C34.144 33.3998 33.3414 34.5639 32.8594 35.7838L38.8532 36.0412C38.8532 36.0412 43.7439 31.4814 55.2904 28.5397C54.6815 28.4818 54.0584 28.4585 53.4275 28.4645Z" fill="#BB192E"/>
<path d="M52.4954 40.106C50.1523 40.1005 48.4509 40.4538 48.4509 40.4538L42.3467 40.1595L44.553 43.4691C44.553 43.4691 55.5848 40.6745 63.0127 43.9838C60.1213 40.795 55.706 40.1136 52.4954 40.106Z" fill="#BB192E"/>
<path d="M47.2739 46.7786L47.8623 50.088C47.8623 50.088 52.1626 52.8074 56.1033 57.5152C56.5803 56.8841 57.0298 56.2601 57.453 55.6446C54.464 52.4276 49.2598 49.4628 49.2598 49.4628L47.2739 46.7786Z" fill="#BB192E"/>
<path d="M27.9057 11.7885C27.9057 11.7885 21.9389 16.7679 18.8118 23.1708C18.8865 23.2293 18.9609 23.2869 19.0352 23.3436C19.7589 23.8968 20.4515 24.3568 21.0624 24.7284C21.9851 22.3625 24.3201 16.872 27.9057 11.7885Z" fill="white"/>
<path d="M20.7979 40.8951C16.836 41.6855 15.3371 44.3885 15.3371 44.3885C12.5057 44.646 11.8254 46.4478 11.6416 47.0729C11.4577 47.6981 11.7335 48.6909 11.7335 48.6909C9.91338 49.0403 8.82863 48.0475 8.55264 47.3855C8.27688 46.7236 7.37598 45.2711 7.37598 45.2711C7.37598 45.2711 7.96431 47.0361 7.96431 47.8451C7.96431 48.6541 9.03077 50.2721 12.4874 49.7574C12.4874 49.7574 12.2116 48.5073 12.3403 47.8085C12.4691 47.1098 13.7009 45.2714 15.9625 44.8483C15.9623 44.8481 16.4955 42.0349 20.7979 40.8951Z" fill="#BB192E"/>
<path d="M25.9298 38.2585C26.1377 44.759 24.7859 49.1272 24.7859 49.1272C23.8758 50.7914 23.8497 53.7296 23.8497 53.7296C23.8497 53.7296 22.2635 54.5357 21.6395 54.6397C21.2652 54.7021 20.7309 54.3822 20.3618 54.1158C20.3083 54.1575 20.2571 54.1938 20.2093 54.2235C19.3772 54.7435 17.6611 55.5237 17.6611 55.5237C17.6611 55.5237 19.9493 57.0319 21.1973 56.7717C22.4453 56.5117 25.2537 54.5876 25.2537 54.5876C25.2537 54.5876 24.9416 51.1554 26.0336 49.1272C26.0339 49.1272 26.9179 43.1988 25.9298 38.2585Z" fill="#BB192E"/>
<path d="M30.5794 20.6703C30.5794 20.6703 25.1371 25.0096 22.4895 30.5252C22.4895 30.5252 25.6699 26.4016 28.296 24.5555L27.5161 30.9258L29.2063 31.0818C29.2061 31.082 29.7704 26.4067 30.5794 20.6703Z" fill="#F56578"/>
<path d="M26.4604 33.4304L29.2183 35.5265L27.6456 40.3388C27.6456 40.3388 29.7778 37.7906 31.5979 33.6823C31.5979 33.6821 28.5934 33.8714 26.4604 33.4304Z" fill="#BB192E"/>
<path d="M13.592 38.0634C13.592 38.0634 14.6711 38.0895 14.7362 37.7904C14.8012 37.4913 14.9702 36.0743 15.6982 34.8652C15.6982 34.8652 14.5412 35.9572 14.0601 37.5304L13.592 38.0634Z" fill="#BB192E"/>
<path d="M18.8122 23.1707C18.8122 23.1707 14.5834 30.8561 14.3996 31.6651C14.2157 32.4741 14.3996 33.5771 14.3996 33.5771C14.3996 33.5771 14.8409 31.996 15.0984 31.5178C15.3558 31.0397 18.9963 25.4504 18.9963 25.4504L23.3353 25.9285C23.335 25.9288 21.2024 25.0462 18.8122 23.1707Z" fill="#F56578"/>
<path d="M18.5366 38.6151C18.5366 38.6151 20.2877 37.6863 20.5216 36.2041C20.7555 34.722 20.2616 34.098 20.2616 34.098L20.7816 32.9019L19.3255 34.3579C19.3255 34.3582 20.9197 35.8515 18.5366 38.6151Z" fill="#BB192E"/>
<path d="M35.2176 19.1727C35.2176 19.1727 34.5065 19.4608 33.2686 20.034L33.1282 21.0296C32.9619 22.2076 32.8142 23.2974 32.6715 24.354C36.3207 23.7451 39.5278 23.4961 42.3092 23.4833C42.8561 23.4808 43.3859 23.4877 43.9002 23.5025C38.7563 20.6031 35.2176 19.1727 35.2176 19.1727ZM59.9117 34.6136C61.2658 36.2202 62.7269 38.1937 64.0657 40.5002C64.2797 39.3039 64.3081 38.6298 64.3081 38.6298C62.8627 37.2121 61.3897 35.8738 59.9117 34.6136ZM10.3528 34.7602C8.93213 35.9778 7.51652 37.2668 6.1272 38.6298C6.1272 38.6298 6.18573 40.0676 6.80242 42.4845C7.23253 42.1141 7.72917 41.6401 8.19837 41.1551L9.17268 38.7633C8.93763 37.827 9.22619 37.4092 9.34921 37.0054C9.49555 36.5248 9.67344 36.126 9.85545 35.7478C10.0526 35.3378 10.1904 35.046 10.3528 34.7602ZM31.3428 39.5595C30.3587 41.0929 29.6201 41.9903 29.6201 41.9903L28.9741 42.7623C29.0668 46.4954 28.5797 49.5068 28.5797 49.5068L28.5134 49.9515C27.6335 51.6991 27.8213 54.3865 27.9539 55.8577C25.93 57.2022 23.707 58.8559 21.7223 59.2917C19.818 59.6884 18.7733 59.004 17.86 58.5719C17.044 58.1857 16.4721 57.8178 16.3436 57.7341L15.0009 58.3823C17.8843 62.0379 21.7035 65.9026 26.7598 69.6992C34.1006 63.7393 36.7224 48.0564 31.4187 39.6866L31.3428 39.5595Z" fill="white"/>
<path d="M42.3211 26.0574C39.3358 26.0712 35.8009 26.37 31.6824 27.1422C31.6824 27.1422 33.3724 27.3647 35.4975 27.6667C39.0639 27.0011 46.7893 26.1039 55.2899 28.5393C55.2873 28.5377 51.2746 26.0161 42.3211 26.0574Z" fill="#F56578"/>
<path d="M53.3357 31.6538L52.1526 31.7814C54.0948 33.2805 59.3765 37.6993 63.012 43.9837C59.2197 36.2402 53.3357 31.6538 53.3357 31.6538Z" fill="#F56578"/>
<path d="M16.096 38.3343C16.096 38.3343 18.4493 36.6981 17.5484 34.5469C17.5486 34.5466 15.6915 36.2565 16.096 38.3343Z" fill="white"/>
</svg>
