<svg width="98" height="92" viewBox="0 0 98 92" fill="none" xmlns="http://www.w3.org/2000/svg">
<path d="M2.27562 59.8776C3.51373 63.9114 5.32939 67.8547 7.70519 71.5757C18.2341 88.0644 33.1594 91.5887 33.1594 91.5887C33.1594 91.5887 25.7996 83.3551 25.9847 77.4285C26.134 72.6362 29.1803 68.5701 33.5544 67.2556C33.449 68.7452 33.5959 70.2247 33.99 71.6188C34.1643 72.2213 34.3618 72.7532 34.5966 73.2619C34.8456 73.8096 35.1543 74.3531 35.5169 74.8751C36.3567 76.0775 37.4297 77.0493 38.6246 77.6915C38.9507 77.8691 39.2918 78.0235 39.647 78.1529L44.0998 82.6722L46.4607 81.9029C54.4503 79.3014 59.1587 81.2191 59.4882 81.361L61.6374 82.3892L66.3135 78.9247C67.2645 79.0126 68.1989 78.8425 69.0403 78.4201C69.9175 77.9803 70.6278 77.3024 71.1249 76.4451C72.4136 76.1364 73.6741 75.758 74.889 75.3166C80.0779 73.4287 84.5133 70.3517 88.1969 66.288C106.34 46.275 92.3038 17.2003 92.3038 17.2003C92.3038 17.2003 89.5122 36.7304 80.0173 43.125C78.7062 44.008 77.288 44.6245 75.8964 45.1432C82.1525 32.8708 73.9587 23.4531 73.9587 23.4531C73.9587 23.4531 73.4293 27.6022 72.2451 29.744C72.2883 28.8395 72.2559 27.9483 72.1464 27.0811C72.1464 27.0811 69.4926 26.6952 67.2819 21.5445L67.2603 21.4964C67.0861 21.1179 66.9068 20.7288 66.7201 20.3446C66.4546 19.7471 66.1691 19.1637 65.8621 18.5936C66.2496 18.5057 66.6172 18.387 66.9741 18.2326C67.6985 17.9206 68.3283 17.4825 68.8387 16.9281C68.9623 16.7937 69.0885 16.6502 69.2154 16.4775L69.2262 16.4634C69.2909 16.3788 69.3963 16.241 69.5075 16.0601C69.6884 15.773 69.8453 15.4718 69.9739 15.1648C70.2212 14.5723 70.3705 13.9217 70.4261 13.223C70.4585 12.7724 70.4569 12.3334 70.4203 11.8347L70.4187 11.8131C70.388 11.4256 70.3863 11.0953 70.3863 10.7775L70.3847 10.5675C70.3847 7.6017 74.6782 4.6807 74.6782 4.6807C74.6782 4.6807 63.2797 2.34058 57.2136 9.39413C54.5938 7.80584 51.8936 6.59844 47.976 6.16112C36.9948 -1.98282 25.905 1.91571 25.905 1.91571C25.905 1.91571 31.5918 3.49819 32.9179 7.33615C27.7456 8.92942 23.3782 11.4753 20.0439 13.6047C16.2657 16.0178 12.8817 18.9513 9.98888 22.3262C6.99403 25.8032 4.64976 29.6519 3.02745 33.7604C2.20177 35.8615 1.56197 38.0324 1.12714 40.2156C0.693138 42.3973 0.450826 44.6345 0.404355 46.8709C0.314734 51.1685 0.946238 55.5459 2.27562 59.8776Z" fill="#134EE7"/>
<path d="M92.0818 36.0698C93.144 46.3008 90.3881 56.0322 84.3287 62.8542C78.8386 69.0339 70.9834 72.3168 61.8901 72.3184C60.428 72.3184 56.2681 72.1458 53.7072 70.6895C54.6208 70.7973 55.5536 70.8745 56.4971 70.9193C57.1195 70.9484 57.7418 70.9641 58.3617 70.9641C60.9674 70.9641 63.5631 70.7061 66.1024 70.194C69.2225 69.5626 72.2456 68.5593 75.0894 67.2116C76.4669 66.5536 77.8469 65.8001 79.1912 64.9703C80.4401 64.1811 81.7089 63.2857 82.9703 62.304C82.5662 62.5422 63.6012 73.6702 49.7107 63.1853C49.3896 60.0187 50.6136 57.6122 51.9446 55.9832C53.1446 54.5136 54.7852 53.2431 56.5643 52.4042C58.2596 51.6042 59.4977 51.4856 59.916 51.6001C61.2271 51.961 64.7207 52.3502 68.9727 51.9461C70.9245 51.7611 73.3634 51.3719 75.9466 50.5844C75.8014 50.6906 75.6545 50.796 75.5085 50.9022C75.0994 51.1785 74.6936 51.4656 74.2704 51.7262C72.5949 52.8008 70.7984 53.7087 68.9321 54.487C70.9079 54.0655 72.8754 53.4962 74.7799 52.722C75.2603 52.5369 75.7275 52.3237 76.2014 52.117C76.6677 51.898 77.1383 51.6789 77.5971 51.4374C78.5191 50.9636 79.4269 50.4491 80.3065 49.884C82.0683 48.7554 83.742 47.4542 85.2839 45.978C86.0556 45.2403 86.795 44.4602 87.4929 43.6279C87.7045 43.3765 87.9094 43.12 88.1136 42.8578C89.779 40.882 91.1068 38.6191 92.0818 36.0698ZM61.135 39.1651C61.0362 39.1485 60.9524 39.1327 60.8869 39.1203C60.218 39.0074 58.9774 39.5294 57.9982 40.7194C57.4472 41.3907 56.6954 42.6321 56.7975 44.3274C56.8025 44.3291 56.8066 44.3324 56.8116 44.3349C57.2365 44.5631 57.7949 44.8262 58.2596 45.0004C58.5111 45.0851 58.7642 45.1747 59.0223 45.2494C59.2828 45.3174 59.5426 45.4021 59.8098 45.4519C60.8719 45.6884 61.9839 45.7979 63.1042 45.7672C64.2269 45.7348 65.363 45.573 66.4774 45.2593C67.5894 44.9415 68.674 44.4843 69.7271 43.9266C68.83 44.705 67.8525 45.4162 66.7845 46.0095C65.7148 46.5979 64.5556 47.0518 63.3415 47.3713C62.13 47.6874 60.862 47.8592 59.5741 47.8716C59.2471 47.875 58.9177 47.8683 58.5891 47.8517C59.1417 48.2335 59.7965 48.4708 60.4927 48.5264C60.9234 48.5604 61.3483 48.577 61.7632 48.577C65.5182 48.577 68.6533 47.2202 70.8888 44.6154C73.004 42.15 74.0787 38.7676 73.9716 35.1578C73.9666 35.167 73.9608 35.1744 73.9559 35.1844C73.3443 36.2499 72.5451 37.1328 71.5568 37.8216C70.249 38.7344 68.7686 39.2066 67.328 39.4223C67.1703 39.4456 67.0143 39.4671 66.8575 39.4837C64.4095 39.7626 62.1449 39.3501 61.135 39.1651Z" fill="#D5E0F0"/>
<path d="M61.0627 16.2618C60.725 15.0187 60.4486 11.8819 65.367 9.73103C65.3687 9.72937 65.3687 9.72937 65.3703 9.72937H65.372C65.3255 9.97915 65.2998 10.2298 65.2965 10.4687C65.2807 11.2007 65.4401 11.8147 65.5347 12.3118C65.5828 12.5616 65.6259 12.7823 65.6425 12.9757C65.6608 13.1715 65.655 13.3341 65.6284 13.491C65.6143 13.5698 65.5961 13.6486 65.5654 13.7275C65.5546 13.7673 65.5313 13.8063 65.5147 13.8478C65.4965 13.8926 65.4774 13.9217 65.4625 13.9532C65.3911 14.0768 65.2898 14.2063 65.1338 14.3225C64.9812 14.4395 64.7837 14.5465 64.5637 14.642C64.343 14.7374 64.0991 14.8162 63.846 14.8967C63.5912 14.9772 63.3256 15.0461 63.0551 15.1299C62.7838 15.2104 62.5058 15.2967 62.2261 15.412C61.9515 15.5266 61.6594 15.6776 61.4353 15.9249C61.3258 16.0485 61.2469 16.2045 61.2195 16.3589C61.2137 16.3863 61.2121 16.4128 61.2088 16.441C61.1606 16.3821 61.115 16.324 61.0635 16.2651C61.0279 16.222 60.9913 16.1788 60.9557 16.134C60.9913 16.1771 61.027 16.2186 61.0627 16.2618ZM44.106 16.7887C44.4885 16.0751 44.8362 15.3664 45.0744 14.6536C45.1068 14.5532 45.1375 14.4544 45.1657 14.354C45.3383 13.7399 45.4146 13.1317 45.3682 12.5782C45.3283 12.257 45.2752 11.9533 45.1524 11.6753C45.1325 11.604 45.0968 11.5367 45.0628 11.4704C45.0287 11.404 45.0039 11.3343 44.964 11.2712C44.881 11.1434 44.813 11.0148 44.7126 10.8978C44.5425 10.6505 44.3159 10.4297 44.0886 10.2173C43.9574 10.1169 43.8446 10.0107 43.7118 9.91193C43.5757 9.81733 43.4537 9.71443 43.3077 9.62813C42.7442 9.26716 42.1252 8.94435 41.4646 8.67383C41.3501 8.62902 41.2406 8.58089 41.1277 8.53359C41.0754 8.51201 41.0215 8.49044 40.9676 8.47052L40.4597 8.28215C40.1137 8.16597 39.7685 8.05229 39.4141 7.94441C39.2241 7.883 39.0316 7.82823 38.8366 7.77429C46.6195 11.1683 44.2255 16.5024 44.106 16.7887ZM48.0709 65.698C47.9672 65.0449 47.8087 64.4076 47.5689 63.8101C47.5191 63.6848 47.4635 63.5629 47.4087 63.4425C47.3531 63.3255 47.2925 63.2094 47.2328 63.0948C47.0568 62.7679 46.8577 62.4584 46.6245 62.1837C46.237 61.7049 45.7524 61.3348 45.2254 61.1074C45.2146 61.1024 45.2038 61.0983 45.1931 61.0933C44.6761 60.8775 44.111 60.8203 43.5707 60.9082C43.0181 60.9979 42.4886 61.2402 42.0131 61.5721C41.5377 61.9074 41.1111 62.3289 40.7485 62.8061C40.3842 63.2816 40.0772 63.8077 39.8299 64.362C39.5809 64.9163 39.3884 65.498 39.259 66.0955C39.1892 66.4025 39.1386 66.7129 39.1013 67.0266C39.0996 67.0374 39.098 67.0465 39.098 67.0573C39.127 66.8598 39.161 66.6623 39.2033 66.4614C39.8705 63.3463 41.9949 61.158 43.9491 61.5762C44.4064 61.6733 44.8138 61.9049 45.1607 62.2434C45.6968 62.7637 46.0884 63.5355 46.3017 64.4558C46.5407 65.4889 46.5515 66.7129 46.2818 67.9759C46.271 68.024 46.2602 68.0713 46.2494 68.1178C46.1631 68.4896 46.0577 68.848 45.9333 69.1891C45.8934 69.302 45.8486 69.4098 45.8055 69.5177C45.6312 69.9393 45.4304 70.3343 45.2047 70.6927C45.2014 70.6977 45.1989 70.7035 45.1955 70.7085C45.1939 70.7118 45.1922 70.7135 45.1906 70.716C44.3582 72.0387 43.2239 72.876 42.097 72.9084C41.9086 72.9159 41.7219 72.9009 41.5368 72.8603C41.1833 72.7847 40.8605 72.6271 40.5701 72.4047C40.6207 72.4545 40.6738 72.5001 40.7277 72.5466C40.7277 72.5466 40.7294 72.5466 40.7294 72.5483C40.7833 72.5931 40.8389 72.6379 40.8962 72.6794C41.1227 72.8445 41.3684 72.9822 41.6314 73.081C41.7625 73.1316 41.8986 73.1739 42.0372 73.198C42.1069 73.2121 42.175 73.232 42.2455 73.2395L42.4588 73.2627C42.5301 73.2752 42.6007 73.2702 42.6737 73.2719C42.7451 73.2702 42.8173 73.2752 42.8895 73.2685C43.0347 73.2519 43.1816 73.2453 43.3251 73.2096C43.618 73.1648 43.9027 73.0553 44.1865 72.9441C44.7483 72.6968 45.2702 72.3283 45.7424 71.896C45.8055 71.8421 45.866 71.7831 45.925 71.7242C45.9789 71.6686 46.0328 71.6114 46.0884 71.5574C46.203 71.4413 46.3034 71.3168 46.4146 71.1948C46.52 71.0712 46.6187 70.9417 46.7233 70.8131C46.9515 70.4936 47.1539 70.155 47.3174 69.799C47.5556 69.2804 47.7448 68.7202 47.8792 68.1269C47.973 67.7103 48.0352 67.2979 48.0676 66.8905C48.0999 66.4756 48.1016 66.0673 48.0734 65.6723C48.0726 65.6831 48.0709 65.6905 48.0709 65.698ZM67.2873 30.3514C64.6135 28.4943 63.4368 25.8787 62.4394 23.7701C61.2303 21.215 60.1316 19.0724 57.8496 16.7116C57.1393 15.9755 56.3626 15.31 55.5427 14.715C56.0339 15.4079 56.4671 16.1274 56.8455 16.8626C57.9708 19.05 58.6346 21.3503 59.0097 23.6415C59.3806 25.9359 59.4603 28.2296 59.3201 30.4826C58.9359 28.2595 58.3334 26.0936 57.4903 24.0696C56.6488 22.049 55.5593 20.1636 54.2125 18.6011C52.8706 17.0385 51.2716 15.8253 49.5488 15.1365C48.5265 14.7216 47.4693 14.4818 46.398 14.3922C46.2511 14.6486 46.0876 14.8876 45.9133 15.1133C45.3881 15.783 44.7723 16.339 44.101 16.7995C44.1134 16.7489 42.082 16.8319 41.0871 17.0128C38.9967 17.3738 36.9786 17.9065 35.0335 18.6027C31.1457 19.9894 27.521 21.9635 24.3345 24.4522C22.7429 25.6978 21.2591 27.0686 19.9239 28.5574C18.5904 30.0469 17.3996 31.6501 16.3714 33.3322L15.9856 33.962C15.8619 34.1753 15.7474 34.3944 15.6304 34.6093L15.2786 35.2574C15.2213 35.3653 15.1599 35.4707 15.1068 35.5802L14.9475 35.9138C14.7408 36.3569 14.5226 36.7934 14.3267 37.2399L13.7724 38.5908C13.082 40.4081 12.5542 42.2686 12.1609 44.1407C12.8588 42.3541 18.9273 24.2248 46.705 21.9926C46.8145 22.4971 46.8652 23.0174 46.8652 23.5427C46.8652 24.1128 46.8062 24.687 46.6984 25.2521C46.4884 26.3425 46.0918 27.3981 45.5648 28.3848C45.0354 29.3681 44.3773 30.2851 43.623 31.1083C42.9965 31.7987 42.3028 32.4252 41.565 32.9886C41.5617 33.0824 41.5592 33.1754 41.5576 33.2683C41.5526 33.5338 41.5484 33.7961 41.5501 34.0591C41.5484 34.2724 41.5484 34.4848 41.5518 34.6981C41.7775 34.44 42.0273 34.201 42.3235 34.0052C42.5393 33.8633 42.7807 33.7488 43.0446 33.6807C43.3069 33.616 43.5915 33.6002 43.8662 33.645C44.4205 33.7297 44.9126 34.016 45.33 34.3429C45.7499 34.6749 46.11 35.0591 46.4419 35.4574C47.1008 36.259 47.651 37.1245 48.1622 38C48.6717 38.8788 49.1397 39.7725 49.592 40.6679C50.0426 41.5633 50.4782 42.462 50.9139 43.3499C51.3496 44.2345 51.7844 45.1158 52.2433 45.934C52.4715 46.3398 52.713 46.7339 52.947 47.0609C54.2689 48.9039 55.4265 48.2202 55.6257 48.0832C53.3594 49.9279 51.9462 49.4848 51.0284 48.3753C50.4915 47.6932 49.7978 47.1372 49.0659 46.6119C49.0659 46.6119 49.0642 46.6119 49.0642 46.6103C46.5581 45.0295 43.1218 45.139 42.7824 47.538C42.3874 50.3263 47.5174 51.6805 47.4817 59.5523C47.4817 59.5556 47.4834 59.5581 47.485 59.5614C47.6892 58.6478 48.0037 57.7549 48.4286 56.8968C48.8534 56.0371 49.387 55.2081 50.0343 54.419C52.1869 51.7851 55.2738 49.9761 57.7708 49.3446C56.7949 48.7164 56.0198 47.7886 55.5966 46.6734C54.6564 44.1938 55.0531 41.6313 56.6862 39.6422C57.9616 38.0904 59.7632 37.2092 61.1698 37.4465C61.242 37.4589 61.3332 37.4739 61.4403 37.4946C62.1506 37.6241 63.563 37.8979 65.1778 37.9054C65.2517 37.8207 65.3214 37.7328 65.3911 37.6448C67.2209 35.2607 67.3138 31.9829 67.2873 30.3514Z" fill="#1A75FF"/>
<path d="M58.6205 41.2189C58.2313 41.5259 57.8794 41.9026 57.5907 42.3508C57.2836 42.8296 57.0488 43.3839 56.8928 43.983C56.8621 44.0992 56.8355 44.2179 56.8106 44.3365C56.8056 44.3332 56.8015 44.3307 56.7965 44.3291C56.6944 42.6337 57.4463 41.3923 57.9973 40.721C58.9765 39.531 60.2171 39.009 60.8859 39.1219C60.9523 39.1343 61.0353 39.1493 61.1349 39.1667C62.1448 39.3517 64.4094 39.7642 66.8582 39.4845C67.0159 39.4679 67.1719 39.4455 67.3287 39.4231C68.7693 39.2074 70.2497 38.7344 71.5575 37.8224C72.5458 37.1336 73.345 36.2507 73.9565 35.1852C72.9043 48.104 54.3327 45.6833 58.6205 41.2189ZM51.9462 55.9824C50.6184 57.6063 49.3969 60.0054 49.7106 63.1595C49.7662 62.7488 49.8384 62.3463 49.9313 61.9521C50.1753 60.9149 50.5579 59.9464 51.0707 59.11C51.5835 58.2735 52.2192 57.569 52.9328 57.0055C53.4249 56.613 53.956 56.2861 54.512 56.0172C43.0255 68.2107 93.9546 68.8605 92.0866 36.1553C92.0925 36.2432 92.1032 36.3403 92.1157 36.444C92.1622 36.9394 92.2003 37.4324 92.2302 37.9244C92.1962 37.3087 92.1472 36.6897 92.0817 36.069C91.1058 38.6182 89.7781 40.8811 88.1143 42.8569C87.9101 43.1192 87.7051 43.3756 87.4935 43.627C86.7957 44.4593 86.0563 45.2386 85.2845 45.9771C83.7419 47.4534 82.069 48.7545 80.3072 49.8831C79.4276 50.4482 78.5198 50.9619 77.5978 51.4366C77.1389 51.6772 76.6684 51.8963 76.2021 52.1162C75.7282 52.3228 75.2602 52.5361 74.7806 52.7211C72.8753 53.4945 70.9086 54.0646 68.9328 54.4862C70.799 53.7078 72.5965 52.8 74.2711 51.7253C74.6943 51.4648 75.1 51.1776 75.5092 50.9013C75.656 50.7951 75.8021 50.6897 75.9473 50.5835C73.364 51.371 70.9252 51.7602 68.9734 51.9452C64.7214 52.3494 61.2278 51.961 59.9167 51.5992C59.4984 51.4847 58.2603 51.6042 56.565 52.4033C54.7867 53.2423 53.1453 54.5127 51.9462 55.9824Z" fill="white"/>
<path d="M46.6751 39.3044C46.6013 39.4928 46.505 39.9791 46.5963 40.9135C46.7432 42.4138 47.2834 43.998 47.7771 44.3714L47.8975 44.4627C48.612 45.0029 49.3721 45.5755 50.0451 46.2302C50.0434 46.2252 50.0417 46.2227 50.0417 46.2177C49.4874 44.3017 48.6335 41.8744 47.5174 40.2571L47.5157 40.2554C47.3996 40.087 47.2809 39.9285 47.1589 39.7799C46.9224 39.4895 46.7631 39.3609 46.6751 39.3044Z" fill="white"/>
<path d="M38.8907 49.3372C40.1163 50.0126 46.1741 52.9585 45.5608 59.8652C42.4149 60.8693 46.15 58.1914 42.4963 57.7674C38.8434 57.3434 38.8907 49.3372 38.8907 49.3372Z" fill="#D6E6FF"/>
<path d="M53.069 21.7984C53.9893 23.0755 54.0548 24.6015 53.215 25.2073C52.3752 25.8131 50.948 25.2679 50.0277 23.9908C49.1074 22.7137 49.0418 21.1876 49.8816 20.5818C50.7214 19.9769 52.1487 20.5213 53.069 21.7984ZM56.0555 27.0238C55.8107 26.2662 55.2091 25.7832 54.7104 25.9434C54.2125 26.1044 54.0067 26.8487 54.2515 27.6063C54.4963 28.364 55.0979 28.8469 55.5967 28.6868C56.0945 28.525 56.3003 27.7806 56.0555 27.0238Z" fill="#89B8FF"/>
<path d="M4.8584 59.0843C6.05833 62.9953 7.81508 66.7046 9.98674 70.1277C12.1667 73.5474 14.7126 76.734 17.666 79.4741C22.4856 83.9468 26.1883 86.1957 27.0323 86.6886C24.7137 84.2912 23.2823 81.0275 23.2823 77.4285C23.2823 70.0721 29.2446 64.1098 36.5993 64.1098C36.7487 64.1098 36.8914 64.1114 37.0251 64.1156C37.0234 64.1172 37.0234 64.1189 37.0234 64.1206C36.7952 64.679 36.6159 65.2541 36.4848 65.8342C36.1205 67.4598 36.1097 69.1925 36.5886 70.8828C36.7105 71.306 36.8599 71.7259 37.0516 72.135C37.2367 72.5475 37.4665 72.9483 37.7354 73.3358C38.2723 74.1051 38.9934 74.8237 39.9062 75.3133C40.2796 75.5174 40.6863 75.6726 41.0995 75.7797L44.8495 79.5853L45.6213 79.3338C54.9693 76.2892 60.564 78.8832 60.6196 78.9089L61.3332 79.25L65.6931 76.0186C66.4267 76.3124 67.1785 76.3307 67.8225 76.0062C68.5204 75.656 68.971 74.9656 69.1486 74.1117C70.8049 73.7847 72.4123 73.34 73.9624 72.7765C78.7223 71.0447 82.8308 68.2589 86.1742 64.494C93.8368 55.8687 96.6001 42.9956 93.5663 30.0561L92.5738 25.8256C92.5738 25.8256 89.8179 40.17 81.4483 45.4146C76.3166 48.6318 70.4423 49.5214 66.1994 49.6201C68.5444 48.8957 70.5842 47.5779 72.1774 45.7199C75.31 42.0687 76.4278 36.6823 75.1698 31.3124L74.6777 29.213C74.6777 29.213 73.5815 34.2334 70.585 36.4275C69.9676 36.8798 69.2863 37.2042 68.581 37.4308C70.0199 34.4467 69.9361 31.2046 69.9029 29.8378C69.8996 29.7499 69.8979 29.6727 69.8971 29.603L69.8846 28.8761L69.2606 28.5026C66.8383 27.048 65.8143 24.8232 64.8252 22.6731C64.6384 22.2673 64.4559 21.8707 64.2675 21.484C63.826 20.4848 62.924 18.6028 61.3175 16.5763C61.339 16.5224 61.3639 16.4726 61.398 16.4295C61.4751 16.3307 61.5614 16.2552 61.6685 16.2087C61.8801 16.1133 62.1274 16.0867 62.383 16.0743C62.9 16.0577 63.4485 16.0992 64.0269 16.0884C64.319 16.0851 64.6169 16.0652 64.9289 16.0187C65.2409 15.9739 65.5662 15.8967 65.8981 15.7532C66.2284 15.6113 66.5711 15.398 66.8508 15.0951C66.9205 15.0196 66.9893 14.9424 67.0425 14.8686C67.0981 14.7947 67.1586 14.7217 67.2076 14.6387C67.3113 14.4769 67.4034 14.3018 67.4789 14.1217C67.63 13.7574 67.7013 13.3682 67.7287 13.0131C67.7553 12.6562 67.7445 12.3276 67.7229 12.0314C67.6748 11.4397 67.6831 10.9634 67.6798 10.5891C67.6408 7.38433 70.2738 6.10888 70.2738 6.10888L67.8997 6.52545C66.6309 6.74785 65.3645 7.05073 64.1215 7.51544C62.885 7.97848 61.6486 8.59173 60.5756 9.5535C60.3084 9.79249 60.0553 10.0614 59.8254 10.3535C59.6047 10.658 59.3914 10.9708 59.2354 11.3293C59.1524 11.5019 59.0952 11.692 59.0346 11.8745C59.0056 11.9675 58.9881 12.0662 58.9666 12.16C58.945 12.2546 58.9234 12.3484 58.9159 12.4471C58.9052 12.5425 58.896 12.6405 58.8869 12.7359L58.8886 13.0247C58.8869 13.1201 58.896 13.2147 58.9085 13.3085C58.9209 13.4014 58.9284 13.4952 58.9458 13.5865C58.9873 13.7997 59.0462 14.003 59.1176 14.1997C56.3418 11.6289 52.2765 9.28132 46.4162 8.64816C46.2569 8.63156 46.1001 8.61579 45.9424 8.60002C45.9349 8.58924 45.9266 8.58011 45.9192 8.56932C45.6271 8.19756 45.3018 7.85318 44.9615 7.54697C43.5907 6.31965 42.0132 5.53879 40.4332 4.94712C38.8474 4.35296 37.23 3.96709 35.6102 3.68246L32.578 3.15137C32.578 3.15137 35.9388 4.77866 35.8915 8.86972C35.8899 9.00996 35.8898 9.16182 35.8882 9.32529C30.335 10.6406 25.5626 13.2852 21.4965 15.8818C17.9689 18.1339 14.7649 20.9039 12.0372 24.0846C9.30628 27.2554 7.07404 30.8668 5.53885 34.7529C4.77458 36.6964 4.18209 38.7037 3.77381 40.7443C3.36802 42.784 3.14563 44.8553 3.10414 46.924C3.0195 51.0657 3.65847 55.1767 4.8584 59.0843ZM61.2187 16.3589C61.2129 16.3863 61.2112 16.4129 61.2079 16.4411C61.0909 16.2942 60.9706 16.149 60.8453 16.0029C60.7075 15.7083 60.5847 15.4146 60.486 15.12C60.3009 14.5582 60.2146 13.9972 60.2561 13.4927C60.2868 13.2429 60.33 13.0048 60.4262 12.7873C60.442 12.7317 60.4694 12.6778 60.4959 12.6255C60.5233 12.5732 60.5441 12.5201 60.5748 12.4695C60.6395 12.3708 60.6918 12.2687 60.7706 12.1774C60.9034 11.9841 61.081 11.8115 61.2602 11.643C61.3623 11.5658 61.4502 11.4812 61.5548 11.4048C61.661 11.3293 61.7556 11.2488 61.871 11.1808C62.3124 10.8986 62.7971 10.6447 63.3149 10.4339C63.446 10.3842 63.5713 10.3244 63.7041 10.2746L64.1024 10.1261C64.3737 10.0365 64.6443 9.94684 64.9206 9.86219C65.0691 9.81406 65.2201 9.77091 65.3728 9.72942C65.3264 9.9792 65.3006 10.2298 65.2973 10.4688C65.2816 11.2007 65.4409 11.8148 65.5347 12.3118C65.5828 12.5616 65.6259 12.7824 65.6425 12.9757C65.6608 13.1716 65.655 13.3342 65.6284 13.491C65.6143 13.5699 65.5961 13.6487 65.5654 13.7275C65.5546 13.7674 65.5313 13.8064 65.5147 13.8479C65.4965 13.8927 65.4774 13.9217 65.4625 13.9533C65.3911 14.0769 65.2899 14.2064 65.1338 14.3225C64.9812 14.4395 64.7837 14.5466 64.5638 14.642C64.343 14.7374 64.0991 14.8163 63.846 14.8968C63.5912 14.9773 63.3257 15.0461 63.0551 15.1299C62.7838 15.2104 62.5058 15.2967 62.2261 15.4121C61.9515 15.5266 61.6594 15.6776 61.4353 15.9249C61.3249 16.0486 61.2461 16.2046 61.2187 16.3589ZM61.7639 48.577C61.349 48.577 60.9241 48.5604 60.4934 48.5264C59.7972 48.4708 59.1425 48.2335 58.5898 47.8518C58.9184 47.8684 59.2479 47.875 59.5748 47.8717C60.8627 47.8592 62.1299 47.6883 63.3422 47.3713C64.5555 47.0518 65.7156 46.5979 66.7852 46.0095C67.8532 45.417 68.8307 44.7051 69.7278 43.9267C68.6747 44.4843 67.5893 44.9407 66.4782 45.2594C65.3637 45.5731 64.2268 45.7349 63.1049 45.7672C61.9838 45.7979 60.8727 45.6884 59.8105 45.4519C59.5433 45.4021 59.2844 45.3175 59.023 45.2494C58.7649 45.1756 58.5118 45.0859 58.2604 45.0005C57.7957 44.8262 57.2364 44.5632 56.8123 44.335C56.8074 44.3316 56.8032 44.3291 56.7982 44.3275C56.6961 42.6321 57.448 41.3907 57.999 40.7194C58.9782 39.5294 60.2188 39.0074 60.8876 39.1203C60.954 39.1328 61.037 39.1477 61.1366 39.1651C62.1465 39.3502 64.4111 39.7626 66.8599 39.4829C67.0176 39.4663 67.1736 39.4439 67.3304 39.4215C68.771 39.2058 70.2514 38.7328 71.5592 37.8208C72.5475 37.132 73.3467 36.2491 73.9583 35.1836C73.9632 35.1745 73.969 35.167 73.974 35.157C74.0802 38.7668 73.0056 42.1492 70.8912 44.6146C68.654 47.2194 65.5181 48.577 61.7639 48.577ZM61.89 72.3184C60.4279 72.3184 56.268 72.1458 53.7079 70.6895C54.6216 70.7974 55.5543 70.8745 56.4978 70.9194C57.1202 70.9484 57.7426 70.9642 58.3624 70.9642C60.9681 70.9642 63.5638 70.7061 66.1031 70.1941C69.2232 69.5626 72.2463 68.5593 75.0901 67.2117C76.4677 66.5536 77.8477 65.801 79.192 64.9703C80.4409 64.1811 81.7097 63.2858 82.971 62.3041C82.5669 62.5414 63.602 73.6702 49.7115 63.1853C49.3903 60.0187 50.6143 57.6122 51.9454 55.9833C53.1453 54.5136 54.7859 53.2432 56.565 52.4042C58.2604 51.6043 59.4985 51.4856 59.9167 51.6001C61.2278 51.9611 64.7214 52.3503 68.9735 51.9461C70.9252 51.7611 73.3641 51.3719 75.9474 50.5844C75.8021 50.6906 75.6552 50.796 75.5092 50.9022C75.1001 51.1786 74.6943 51.4657 74.2711 51.7262C72.5957 52.8009 70.7991 53.7087 68.9328 54.4871C70.9086 54.0655 72.8761 53.4963 74.7806 52.722C75.2611 52.537 75.7283 52.3237 76.2021 52.1171C76.6685 51.898 77.139 51.6789 77.5979 51.4375C78.5198 50.9636 79.4277 50.4491 80.3073 49.884C82.069 48.7555 83.7428 47.4543 85.2846 45.978C86.0563 45.2403 86.7957 44.4603 87.4936 43.6279C87.7052 43.3765 87.9102 43.1201 88.1143 42.8579C89.7789 40.882 91.1067 38.6183 92.0817 36.0699C93.1439 46.3008 90.388 56.0322 84.3286 62.8542C78.8385 69.0348 70.9833 72.3168 61.89 72.3184ZM39.0349 67.9104C39.039 67.6656 39.0565 67.4208 39.0822 67.1768C39.0888 67.127 39.0938 67.0772 39.1013 67.0275C39.1386 66.7154 39.1892 66.4042 39.259 66.0972C39.3884 65.4997 39.5818 64.918 39.8299 64.3637C40.0772 63.8094 40.3842 63.2833 40.7485 62.8078C41.1111 62.3306 41.5377 61.9091 42.0132 61.5738C42.4886 61.2419 43.0181 60.9996 43.5707 60.91C44.111 60.822 44.6761 60.8793 45.1931 61.095C45.2038 61.1 45.2146 61.1041 45.2254 61.1091C45.7515 61.3357 46.237 61.7066 46.6245 62.1854C46.8577 62.4609 47.0569 62.7696 47.2328 63.0957C47.2942 63.2094 47.3531 63.3256 47.4087 63.4434C47.4651 63.5646 47.5199 63.6866 47.5697 63.811C47.8087 64.4085 47.968 65.0458 48.0717 65.6989C48.0717 65.6914 48.0734 65.6831 48.0734 65.6757C48.1008 66.0707 48.1 66.4781 48.0676 66.8939C48.3041 67.5486 48.5895 68.205 48.9231 68.8639C50.5148 72.0039 53.5859 74.1175 57.1384 74.5175C58.789 74.7025 60.408 74.7955 61.9905 74.7955C62.3133 74.7955 62.6361 74.7905 62.9572 74.783L60.993 76.2386C59.0861 75.5714 53.7403 74.2304 45.9358 76.495C45.8046 76.1738 45.7026 75.8386 45.6702 75.4826C45.6304 75.0536 45.7076 74.5872 45.9192 74.11C46.1291 73.6345 46.4776 73.1624 46.9224 72.7425C47.3672 72.3209 47.9 71.955 48.5049 71.6753C47.8502 71.5475 47.1448 71.5193 46.4287 71.6106C46.4229 71.6123 46.4162 71.6123 46.4104 71.6139C46.3241 71.6264 46.222 71.6479 46.1092 71.677C46.0503 71.6911 45.9889 71.7093 45.9258 71.7276C45.8669 71.7865 45.8071 71.8446 45.7432 71.8994C45.2711 72.3317 44.7491 72.701 44.1873 72.9474C43.9035 73.0586 43.6189 73.1682 43.3259 73.213C43.1824 73.2487 43.0355 73.2545 42.8903 73.2719C42.8181 73.2777 42.7451 73.2736 42.6745 73.2752C42.6023 73.2736 42.531 73.2785 42.4596 73.2661L42.2463 73.2429C42.175 73.2354 42.1078 73.2155 42.038 73.2014C41.8995 73.1765 41.7634 73.135 41.6323 73.0844C41.37 72.9856 41.1244 72.8479 40.897 72.6827C40.8398 72.6404 40.7842 72.5964 40.7302 72.5508C40.7294 72.55 40.7294 72.55 40.7286 72.5491C40.6746 72.5035 40.6224 72.4562 40.5717 72.4081C40.2655 72.1151 40.0075 71.7633 39.7967 71.3824C39.5154 70.8696 39.3195 70.3003 39.1959 69.7136C39.0731 69.1244 39.0158 68.517 39.0349 67.9104ZM42.5708 53.2614L41.7725 53.2548L40.5626 53.244L39.3295 51.6341C39.3004 51.4798 39.2747 51.3279 39.2565 51.1785C39.2249 50.9097 39.22 50.6433 39.2515 50.4541C39.2581 50.4085 39.2681 50.3695 39.278 50.3396C39.3411 50.3487 39.4324 50.3728 39.5311 50.411C39.5793 50.43 39.6282 50.4516 39.6788 50.4749C39.6979 50.4832 39.717 50.4931 39.7361 50.5022C39.7676 50.5172 39.7992 50.5329 39.8315 50.5495C39.8556 50.562 39.8797 50.5744 39.9037 50.5877C39.9311 50.6026 39.9593 50.6184 39.9867 50.6342C40.0672 50.679 40.1477 50.7263 40.2282 50.7777C40.712 51.0831 41.1875 51.469 41.658 51.864C41.7775 51.9652 41.8887 52.0631 41.9974 52.1602C42.1044 52.2598 42.2123 52.3602 42.3152 52.4648C42.521 52.6731 42.7218 52.888 42.9069 53.1145C43.277 53.5693 43.6056 54.0605 43.8786 54.5875C43.9101 54.6464 43.9375 54.7078 43.9674 54.7676C44.0919 55.019 44.2047 55.2762 44.306 55.5401C44.306 55.541 44.3068 55.5418 44.3068 55.5418C44.3566 55.6721 44.4039 55.8032 44.4479 55.936C44.4504 55.9434 44.4529 55.9509 44.4553 55.9584C44.4968 56.0845 44.5367 56.2115 44.574 56.3401C44.5798 56.3592 44.584 56.3783 44.5898 56.3965C44.623 56.5144 44.6545 56.633 44.6835 56.7525C44.6927 56.789 44.7001 56.8255 44.7084 56.8629C44.7325 56.9666 44.7566 57.0695 44.7773 57.1741C44.7906 57.2396 44.8014 57.306 44.8138 57.3724C44.8279 57.4504 44.8437 57.5276 44.8561 57.6056C44.8802 57.7525 44.901 57.8993 44.9192 58.0479C44.9756 58.5093 45.008 58.9765 45.0171 59.4478C44.9773 59.237 44.9192 59.0246 44.8304 58.8163C44.6902 58.4736 44.4628 58.1441 44.1707 57.8778C43.8769 57.6139 43.5276 57.4172 43.1733 57.2878C42.8173 57.1583 42.4571 57.0811 42.1061 57.0363L42.0397 57.028C42.0264 57.0255 42.0347 57.0247 42.0314 57.0247C42.0281 57.0222 42.0223 57.0197 42.0132 57.0156C41.9949 57.0073 41.965 56.9915 41.9293 56.9683C41.8588 56.9218 41.7708 56.8488 41.6845 56.7625C41.5111 56.5865 41.336 56.3633 41.1742 56.1277C41.0871 55.9974 41.0033 55.8638 40.9219 55.7268C40.8605 55.6248 40.8024 55.5194 40.7443 55.414C40.7228 55.375 40.6995 55.3368 40.6788 55.2978C40.517 54.9983 40.3668 54.6887 40.2274 54.3734L41.7626 54.0805L41.7916 55.6472L43.6877 56.3252L42.1824 55.4215L42.2978 54.7817L42.5708 53.2614ZM7.20515 50.3338L7.20681 50.323C7.19105 48.85 7.26988 47.3837 7.44497 45.9291C7.89391 42.077 9.07227 38.3394 10.8431 34.9338C12.6214 31.5265 14.9964 28.4545 17.783 25.8281C20.5662 23.1959 23.7594 21.0085 27.1683 19.2666C29.1475 18.2584 31.2021 17.397 33.3066 16.6867C34.8318 16.1697 36.3803 15.7324 37.9478 15.3698L37.9445 15.3606C38.0184 15.398 38.093 15.4328 38.1652 15.4644C38.5884 15.6478 39.005 15.7465 39.4033 15.8038C39.8 15.8627 40.1817 15.8884 40.5535 15.8917C41.2929 15.9058 41.9924 15.8527 42.653 15.8751C42.9799 15.8917 43.2969 15.9249 43.5658 16.0469C43.7019 16.1075 43.813 16.2029 43.9101 16.3291C44.0105 16.456 44.0587 16.6236 44.1035 16.7996C44.145 16.6278 44.1856 16.4353 44.1408 16.2378C44.1035 16.0419 44.0047 15.8411 43.8645 15.6834C43.579 15.3681 43.2064 15.1756 42.8546 15.0287C42.4994 14.8802 42.1426 14.7706 41.7974 14.6694C41.4514 14.5632 41.112 14.4736 40.7875 14.3715C40.463 14.2678 40.1527 14.1673 39.8705 14.0454C39.5909 13.9217 39.3394 13.7856 39.1419 13.6379C38.9444 13.4894 38.815 13.3242 38.7254 13.1674C38.7038 13.1284 38.6806 13.0902 38.6557 13.033C38.6341 12.9807 38.605 12.9309 38.5909 12.8786C38.5536 12.7782 38.5279 12.6778 38.5104 12.5774C38.4889 12.4554 38.4781 12.3318 38.4781 12.1973C38.4781 12.1094 38.4831 12.0181 38.4922 11.9193C38.5154 11.6721 38.571 11.3899 38.6308 11.0704C38.7494 10.4439 38.9486 9.67299 38.9353 8.75437C38.937 8.74193 38.9353 8.72948 38.9353 8.71703C38.9303 8.41165 38.898 8.09217 38.8382 7.77185C39.0324 7.82579 39.2258 7.87973 39.4158 7.94197C39.7693 8.04985 40.1153 8.16437 40.4614 8.27971L40.9692 8.46808C41.0232 8.488 41.0771 8.50957 41.1294 8.53115C41.2422 8.57928 41.3518 8.62658 41.4663 8.67139C42.1268 8.94192 42.7459 9.26389 43.3093 9.62569C43.4562 9.712 43.5782 9.81572 43.7135 9.90949C43.8462 10.0082 43.9591 10.1145 44.0902 10.2149C44.3168 10.4281 44.5441 10.6489 44.7142 10.8953C44.8147 11.0123 44.8827 11.141 44.9657 11.2688C45.0055 11.3318 45.0304 11.4015 45.0644 11.4679C45.0985 11.5343 45.1341 11.6023 45.1541 11.6729C45.2777 11.9509 45.33 12.2546 45.3698 12.5757C45.4163 13.1284 45.3408 13.7367 45.1673 14.3516C45.1399 14.452 45.1084 14.5507 45.0761 14.6511C44.8371 15.3673 44.4877 16.0809 44.1035 16.7971C44.7748 16.3374 45.3914 15.7814 45.9158 15.1109C46.0901 14.8852 46.2536 14.6462 46.4005 14.3897C47.4718 14.4794 48.5298 14.7184 49.5513 15.1341C51.2741 15.8229 52.874 17.0361 54.215 18.5986C55.5609 20.1612 56.6513 22.0457 57.4928 24.0672C58.3359 26.0912 58.9375 28.257 59.3226 30.4801C59.4628 28.228 59.3831 25.9335 59.0122 23.639C58.6371 21.3479 57.9733 19.0476 56.848 16.8601C56.4696 16.1249 56.0356 15.4054 55.5452 14.7125C56.365 15.3067 57.1418 15.9722 57.8521 16.7091C60.1341 19.07 61.2328 21.2126 62.4419 23.7676C63.4393 25.8762 64.616 28.4919 67.2897 30.349C67.3163 31.9813 67.2234 35.2583 65.3919 37.6424C65.3222 37.7303 65.2533 37.8183 65.1787 37.9029C63.5638 37.8955 62.1514 37.6216 61.4411 37.4922C61.3349 37.4723 61.2436 37.4565 61.1706 37.4441C59.764 37.2059 57.9625 38.088 56.687 39.6398C55.0539 41.628 54.6564 44.1914 55.5975 46.6709C56.0207 47.7854 56.7957 48.7131 57.7716 49.3421C55.2755 49.9736 52.1877 51.7827 50.0351 54.4165C48.2194 56.638 47.2734 59.1607 47.2037 61.8327C47.1946 61.817 47.1855 61.8012 47.1764 61.7854C47.0087 61.5141 46.8071 61.2577 46.578 61.0236C46.4378 57.3392 46.3349 51.1379 38.142 47.8327C37.8615 47.7198 37.5835 47.6177 37.3254 47.5024C37.0707 47.3862 36.8292 47.2601 36.6599 47.1066C36.4898 46.9547 36.3927 46.7771 36.3828 46.5274C36.3695 46.2809 36.4442 45.9988 36.5421 45.7274C36.7487 45.1797 37.0591 44.6519 37.3794 44.1383C36.9612 44.5789 36.5512 45.0303 36.2135 45.5648C36.0508 45.8353 35.8948 46.1257 35.8342 46.485C35.8044 46.6626 35.8044 46.8601 35.8517 47.0535C35.8981 47.2468 35.9903 47.4286 36.1015 47.5821C36.3263 47.8908 36.6002 48.0999 36.8616 48.2932C37.1255 48.4824 37.3893 48.6501 37.6458 48.8144C37.7951 48.9098 37.942 49.0044 38.0864 49.099C37.9752 49.2119 37.8864 49.3338 37.82 49.4525C37.6732 49.7189 37.6126 49.9662 37.5785 50.1877C37.5138 50.6325 37.5412 51.0118 37.5835 51.3769C37.6748 52.103 37.8648 52.761 38.0906 53.4033C38.3154 54.0439 38.586 54.6613 38.898 55.2605C39.2092 55.8604 39.5618 56.4405 39.9942 56.9956C40.2124 57.2728 40.4489 57.545 40.7502 57.7989C40.902 57.9259 41.0688 58.0495 41.2788 58.1582C41.3833 58.2122 41.5003 58.262 41.6356 58.2985C41.7036 58.3167 41.7758 58.3308 41.8513 58.34C41.8879 58.3433 41.936 58.3474 41.9625 58.3483H42.0165C42.5891 58.345 43.1268 58.4171 43.5492 58.6752C43.6073 58.7084 43.6629 58.7466 43.7168 58.7881C43.345 58.7955 42.9816 58.8428 42.6305 58.9217C42.3617 58.9374 42.0837 58.9789 41.7982 59.0486C41.4613 59.1291 41.1269 58.8852 40.9194 58.6088C38.2441 55.058 36.8425 57.7334 33.158 55.6754C30.486 54.1809 25.8497 48.1538 26.4157 45.3241C27.6721 39.0373 36.2068 35.3305 37.2923 31.0477C34.6244 35.6749 25.917 38.8489 24.2913 40.4638C10.4772 54.1875 14.5632 69.1842 20.0567 78.3505C18.7273 77.0858 17.4618 75.7581 16.276 74.3656C16.1632 74.2345 16.0503 74.1017 15.9391 73.969C12.1103 69.4024 9.36354 64.011 8.09805 58.1889C8.05324 57.9865 8.01175 57.7832 7.97026 57.5807C7.48896 55.1891 7.22507 52.7577 7.20515 50.3338ZM39.4191 32.4219C39.4067 32.9472 39.4025 33.5231 39.4133 34.0816C39.4291 34.645 39.4639 35.2101 39.5212 35.7753C39.6448 36.9022 39.8515 38.0307 40.205 39.1236C40.3767 39.6705 40.5875 40.2074 40.8298 40.7277C41.0754 41.248 41.3626 41.7517 41.6854 42.2255C42.3326 43.1715 43.1625 43.9997 44.1259 44.5582C43.4886 43.6454 42.9882 42.7101 42.6364 41.7251C42.2754 40.7476 42.0314 39.741 41.8688 38.7195C41.7069 37.6988 41.609 36.6665 41.5758 35.6242C41.5634 35.3479 41.5559 35.0716 41.5526 34.7936C41.8273 34.5604 42.1227 34.3579 42.4405 34.216C42.8729 34.0185 43.3467 33.9737 43.7591 34.1156C44.1757 34.2517 44.5325 34.5405 44.8412 34.8766C45.1499 35.2143 45.4138 35.6052 45.6536 36.0126C46.0519 36.698 46.3839 37.4333 46.6834 38.1851C46.588 38.176 46.4901 38.1834 46.3905 38.2083C46.0984 38.2805 45.7175 38.5261 45.5615 39.2904C45.2495 40.8032 45.9059 44.3109 47.1274 45.2345L47.2494 45.3258C48.5356 46.2967 50.0467 47.1257 51.0284 48.3746C51.947 49.4849 53.3594 49.928 55.6257 48.0825C55.4265 48.2202 54.2689 48.904 52.947 47.0601C52.7121 46.7332 52.4715 46.339 52.2433 45.9332C51.7844 45.115 51.3496 44.2337 50.9139 43.3491C50.4782 42.4612 50.0434 41.5625 49.592 40.6671C49.1397 39.7717 48.6717 38.878 48.1622 37.9992C47.651 37.1237 47.1017 36.2574 46.4419 35.4566C46.11 35.0583 45.7507 34.6741 45.33 34.3422C44.9134 34.0152 44.4205 33.7289 43.8662 33.6443C43.5915 33.5995 43.3077 33.6152 43.0446 33.6799C42.7807 33.748 42.5401 33.8625 42.3235 34.0044C42.0273 34.2002 41.7767 34.4401 41.5518 34.6973C41.5485 34.484 41.5485 34.2716 41.5501 34.0583C41.5485 33.7961 41.5534 33.5331 41.5576 33.2675C41.5592 33.1746 41.5626 33.0825 41.5651 32.9879C42.3028 32.4244 42.9965 31.7979 43.623 31.1075C44.3782 30.2843 45.0354 29.3673 45.5648 28.384C46.0909 27.3973 46.4884 26.3418 46.6984 25.2514C46.905 24.1643 46.9349 23.0449 46.7042 21.9926C46.471 23.0424 46.1391 24.0182 45.7026 24.9319C45.2686 25.8447 44.7425 26.6953 44.145 27.4836C43.5492 28.2753 42.882 29.0072 42.1675 29.6868C41.4497 30.3631 40.6838 30.988 39.8747 31.5564L39.4316 31.8668L39.4191 32.4219ZM47.1598 39.78C47.2817 39.9286 47.4004 40.0871 47.5166 40.2555L47.5182 40.2572C48.6344 41.8753 49.4883 44.3018 50.0426 46.2178C50.0426 46.2228 50.0442 46.2253 50.0459 46.2303C49.3729 45.5755 48.6128 45.003 47.8983 44.4627L47.778 44.3715C47.2842 43.998 46.7432 42.4139 46.5971 40.9136C46.5058 39.9792 46.6021 39.4929 46.676 39.3045C46.7631 39.361 46.9224 39.4896 47.1598 39.78ZM45.4793 63.9712C45.7947 64.0392 46.0702 64.2085 46.3009 64.4566C46.5407 65.4906 46.5515 66.7138 46.281 67.9776C46.271 68.0257 46.2586 68.0722 46.2478 68.1195C46.1615 68.4913 46.0569 68.8498 45.9324 69.1908C45.8918 69.3028 45.8478 69.4116 45.8038 69.5194C45.6262 69.9509 45.4204 70.3526 45.1897 70.7169C44.9134 70.8837 44.6221 70.9774 44.3309 70.9866C44.2155 70.9915 44.0993 70.9824 43.984 70.9584C42.7733 70.6994 42.1268 68.9244 42.5384 66.9943C42.9534 65.0657 44.2686 63.7114 45.4793 63.9712Z" fill="#030B20"/>
<path d="M92.3025 17.1995C92.3025 17.1995 89.5076 36.7329 80.0152 43.1259C78.7024 44.008 77.2884 44.6254 75.8968 45.1457C82.1479 32.87 73.9566 23.4564 73.9566 23.4564C73.9566 23.4564 73.4247 27.6031 72.2422 29.7474C72.2879 28.842 72.2538 27.9483 72.1459 27.0828C72.1459 27.0828 69.493 26.6977 67.2807 21.5445L67.2583 21.4989C67.0832 21.1196 66.9023 20.7296 66.7156 20.3446C66.45 19.7504 66.167 19.1621 65.8617 18.5969C66.2467 18.5065 66.6143 18.3878 66.9703 18.2351C67.6947 17.924 68.3279 17.4825 68.8374 16.9282C68.9619 16.7921 69.0864 16.651 69.2108 16.4809L69.2225 16.4643C69.2905 16.3796 69.3926 16.2436 69.5054 16.0626C69.6863 15.7739 69.8448 15.4743 69.9693 15.1689C70.2183 14.5748 70.371 13.9242 70.4216 13.223C70.4556 12.7757 70.4556 12.3351 70.4158 11.8372V11.8148C70.3875 11.4297 70.3817 11.0961 70.3817 10.78V10.5708C70.3817 7.60669 74.6753 4.68155 74.6753 4.68155C74.6753 4.68155 63.2767 2.33977 57.2123 9.39415C54.5934 7.81 51.889 6.59928 47.9747 6.16362C36.9944 -1.98281 25.9012 1.9149 25.9012 1.9149C25.9012 1.9149 31.5922 3.49904 32.9158 7.34032C27.7451 8.93027 23.3777 11.4754 20.0402 13.608C16.2611 16.0178 12.8787 18.9538 9.98762 22.3254C6.98945 25.8048 4.64767 29.6511 3.02369 33.7637C2.19801 35.8624 1.55821 38.0349 1.12255 40.2181C0.692703 42.3964 0.449565 44.6361 0.398115 46.8709C0.313473 51.1702 0.946627 55.5484 2.27601 59.8768C3.51495 63.9106 5.33061 67.8531 7.70641 71.5757C18.0701 87.8055 32.6934 91.4775 33.1465 91.5845C32.8577 91.2509 25.8033 83.2348 25.9851 77.431C26.1319 72.6396 29.1816 68.5717 33.5539 67.2598C33.4461 68.7476 33.5938 70.2239 33.9896 71.6213C34.1647 72.2213 34.363 72.7524 34.5945 73.2619C34.8435 73.8104 35.1547 74.354 35.5165 74.8743C36.3538 76.0792 37.4284 77.0526 38.6225 77.6915C38.9503 77.8725 39.2897 78.0251 39.6465 78.1554L44.0986 82.6755L46.4578 81.9062C54.4515 79.3039 59.1575 81.2216 59.4861 81.3635L61.6353 82.3934L66.3139 78.9255C67.2641 79.016 68.1976 78.8467 69.0407 78.4218C69.9179 77.9803 70.6249 77.3015 71.1228 76.4476C72.4123 76.1365 73.6745 75.763 74.8844 75.3166C80.0775 73.4329 84.5129 70.355 88.1957 66.288C106.337 46.2759 92.3025 17.1995 92.3025 17.1995ZM86.1759 64.4915C82.8325 68.2589 78.7257 71.0421 73.9624 72.779C72.4123 73.3391 70.8058 73.7855 69.1486 74.1142C68.9735 74.9681 68.5204 75.6585 67.825 76.0037C67.1803 76.3315 66.4276 76.3149 65.6924 76.0203L61.3366 79.2508L60.6238 78.9114C60.5673 78.8832 54.9726 76.2866 45.6213 79.3354L44.8521 79.5844L41.1012 75.7771C40.688 75.6751 40.2813 75.5166 39.9079 75.3133C38.9968 74.8212 38.2732 74.1025 37.7354 73.3333C37.4699 72.9482 37.2375 72.5466 37.0508 72.1342C36.8641 71.7267 36.7114 71.3027 36.5928 70.8836C36.1123 69.1924 36.1231 67.4614 36.4849 65.8316C36.6152 65.2549 36.7961 64.6773 37.0276 64.1172C36.8915 64.1114 36.7504 64.1056 36.5977 64.1056C29.2438 64.1056 23.2815 70.0679 23.2815 77.4277C23.2815 81.0258 24.7129 84.2895 27.0323 86.6885C26.1892 86.1965 22.484 83.9451 17.6644 79.4699C14.711 76.7323 12.1659 73.5465 9.98762 70.1243C7.81513 66.7021 6.05589 62.9911 4.85678 59.0818C3.65768 55.1725 3.01788 51.0657 3.10336 46.9248C3.14319 44.8544 3.3689 42.784 3.77635 40.7418C4.18379 38.6996 4.77214 36.6972 5.53558 34.7512C7.07409 30.8651 9.30301 27.2554 12.0356 24.0821C14.7625 20.903 17.9697 18.1306 21.494 15.8793C25.5618 13.2827 30.3359 10.6405 35.8857 9.32278C35.8916 9.15847 35.8916 9.00579 35.8916 8.87052C35.9372 4.77449 32.5764 3.15134 32.5764 3.15134L35.6086 3.68326C37.2326 3.96623 38.8499 4.35045 40.434 4.9446C42.0124 5.53876 43.5907 6.31963 44.9599 7.54695C45.2993 7.85232 45.6271 8.19753 45.9159 8.56515C45.9275 8.57676 45.9325 8.58755 45.9441 8.59917C46.0968 8.61576 46.2553 8.62738 46.4138 8.64481C52.2749 9.2788 56.3419 11.6264 59.1193 14.1997C59.0454 14.0014 58.989 13.798 58.9442 13.5831C58.9276 13.4927 58.9218 13.4022 58.9102 13.306C58.8986 13.2155 58.8878 13.1192 58.8878 13.023V12.7342C58.8994 12.6379 58.9044 12.5417 58.916 12.4454C58.9218 12.3434 58.9442 12.2529 58.9666 12.1566C58.989 12.0662 59.0064 11.9641 59.0346 11.8737C59.0969 11.6928 59.1533 11.5003 59.238 11.3252C59.3907 10.9692 59.6056 10.658 59.8263 10.3518C60.0587 10.058 60.3068 9.79163 60.579 9.5543C61.6478 8.59253 62.8867 7.97597 64.1207 7.51209C65.3654 7.04822 66.6326 6.74865 67.8997 6.52211L70.2755 6.10885C70.2755 6.10885 67.645 7.38181 67.679 10.5891C67.6848 10.9625 67.679 11.438 67.7246 12.0313C67.747 12.3251 67.7586 12.6537 67.7304 13.0097C67.7022 13.3657 67.6342 13.7566 67.4815 14.1184C67.4076 14.2993 67.3114 14.4744 67.2101 14.6329C67.1595 14.7175 67.1022 14.7914 67.0458 14.8644C66.9894 14.9382 66.9214 15.0171 66.8533 15.0909C66.5703 15.3963 66.2309 15.6054 65.9031 15.7531C65.5696 15.8942 65.2409 15.9739 64.9298 16.0137C64.6186 16.0643 64.319 16.0817 64.0302 16.0875C63.4477 16.0992 62.9042 16.0535 62.3838 16.0709C62.1291 16.0826 61.8801 16.1108 61.671 16.207C61.5631 16.2527 61.4785 16.3315 61.3997 16.4278C61.3656 16.4734 61.3432 16.5182 61.3208 16.5747C62.9274 18.5994 63.8269 20.484 64.2684 21.4848C64.4609 21.8698 64.6418 22.2656 64.8285 22.6731C65.8185 24.8223 66.8425 27.0463 69.264 28.5001L69.8863 28.8735L69.8979 29.603C69.9038 29.671 69.9038 29.7498 69.9038 29.8353C69.9378 31.2045 70.0224 34.4458 68.586 37.4274C69.293 37.2009 69.9718 36.8789 70.5884 36.4258C73.5865 34.2309 74.6844 29.2129 74.6844 29.2129L75.1765 31.3116C76.432 36.6797 75.3126 42.0653 72.1841 45.7199C70.5892 47.5754 68.552 48.8932 66.2044 49.6176C70.4473 49.5213 76.3192 48.6276 81.4558 45.4145C89.8221 40.1708 92.5772 25.8239 92.5772 25.8239L93.573 30.0552C96.6018 42.9947 93.8352 55.8704 86.1759 64.4915Z" fill="white"/>
</svg>
