<svg width="98" height="84" viewBox="0 0 98 84" fill="none" xmlns="http://www.w3.org/2000/svg">
<path d="M93.7716 81.8957C85.4381 75.9327 61.6921 60.3561 47.0385 71.224C42.2977 74.7394 36.0902 81.2171 32.6455 82.4232C21.3048 86.3857 17.2876 73.5044 17.2876 73.5044L16.4514 73.2953C15.6505 73.0959 8.97664 71.3269 6.27815 66.7115C5.50945 66.3223 0.926198 64.9265 0.617432 57.336C4.09427 53.8784 7.78017 49.9995 14.2996 45.249L13.4023 44.5157L15.6376 42.319C15.7245 42.2354 24.2799 33.8279 30.0371 28.611C33.5525 25.4237 35.9454 18.1741 35.3697 12.4491L34.868 7.4702L39.3805 9.638C41.1494 10.4871 46.7523 13.4718 50.2741 18.6115C55.0118 18.0712 59.4439 18.5375 60.6339 18.6855C61.2289 18.6276 63.3356 18.203 66.5197 16.9165C76.6672 12.8061 84.7788 0.873535 84.7788 0.873535C84.7788 0.873535 87.1267 11.066 86.6121 22.8571C86.2036 32.1876 84.4604 38.8486 81.3309 42.721C86.6217 46.2075 96.2546 47.4104 96.2546 47.4104C96.2546 47.4104 90.6164 53.9267 85.541 55.8211C88.7574 57.4903 97.9625 58.4938 97.9625 58.4938C97.9625 58.4938 91.607 62.9131 86.5735 64.4408C89.0179 67.7922 92.6652 74.4886 93.7716 81.8957Z" fill="white"/>
<path d="M49.5857 61.5716C44.4878 61.2371 35.8713 76.4374 31.3781 77.6725C35.9324 75.5819 42.5034 58.9246 49.5857 61.5716ZM79.8995 59.7576C67.7161 59.8219 60.1159 47.4584 50.3962 45.6348C53.2266 47.1046 57.0475 50.0057 57.6844 52.2218C56.7452 51.7104 44.3592 43.3673 32.0053 51.9902C34.5012 51.7715 55.3815 50.4206 63.5316 62.8067C63.3129 61.1664 63.4351 59.8284 63.0942 58.7027C64.8439 59.6418 78.4071 60.2851 79.8995 59.7576ZM41.175 54.991C40.2519 54.5407 39.3031 54.1258 38.3318 53.7527C37.2865 53.3539 36.2187 53.0001 35.1283 52.701C34.5848 52.5498 34.0348 52.4148 33.4816 52.2958C32.9766 52.1864 32.4652 52.0931 31.9506 52.0256C29.1428 53.9972 26.3414 56.8436 23.6718 60.864C21.7324 63.7877 19.5196 64.9552 17.281 65.1771C20.4716 65.5631 23.704 65.0613 26.0519 62.5655C31.8863 56.3644 30.9503 53.9522 41.175 54.991Z" fill="white"/>
<path d="M51.1844 35.5871C48.1031 35.3941 44.6166 37.2017 43.8705 38.4175C47.0868 44.596 42.4392 46.4454 37.0551 46.5644C36.013 46.6287 34.9741 46.7284 33.9385 46.8828C32.8996 47.0436 31.8704 47.2623 30.8508 47.5518C29.8345 47.8413 28.831 48.2079 27.8564 48.6614C26.8819 49.1149 25.9427 49.6681 25.0389 50.3017C25.7272 49.443 26.4927 48.626 27.3418 47.8831C28.162 47.1658 29.0497 46.5097 29.9824 45.9147C28.6991 45.6606 27.6055 45.3647 26.8561 45.0817C35.3151 45.9083 38.7179 32.4576 51.1844 35.5871ZM90.1725 59.7577C87.77 61.2179 84.1323 62.4144 81.2183 62.9579C83.1352 65.3316 86.2036 67.8017 89.0565 75.5466C74.9529 66.6824 58.1091 59.6355 45.3821 68.9628C44.3143 69.7476 43.2883 70.6514 42.2687 71.5809C41.2492 72.5104 40.2457 73.4817 39.239 74.4595C38.2323 75.4372 33.218 79.7375 31.3493 80.3839C26.2257 82.1561 24.6208 79.6603 24.2606 79.0202C24.1255 79.0202 24.0419 79.0106 24.0419 79.0106C21.4109 78.5635 20.1952 73.5718 20.1952 73.5718C20.1952 73.5718 21.8869 75.3633 24.3185 76.1384C24.0194 75.537 23.8682 75.0738 23.8489 75.0159L23.4372 73.7262L24.5436 74.511C24.5565 74.5206 25.0132 74.839 25.724 75.196C28.281 72.5844 33.1054 68.5318 36.2381 58.6159C32.459 57.9823 30.0982 66.4058 21.5042 67.5155C22.4241 69.5514 24.3571 71.7095 24.3796 71.7353L26.2 73.7551L23.5948 72.9671C23.3343 72.8867 17.2554 71.0116 15.3739 67.1327C14.9397 67.0362 14.4958 66.9237 14.0391 66.795C15.3096 68.7827 17.1268 70.571 17.1268 70.571C17.1268 70.571 10.112 68.8374 8.36233 64.6047C7.38457 64.1383 3.74692 62.2536 3.89165 58.3457C7.27843 54.5537 10.6652 51.0286 18.9537 45.4773C18.1592 44.7697 17.6092 44.3194 17.6092 44.3194C17.6092 44.3194 26.1453 35.928 31.9251 30.6919C36.206 26.813 38.8112 18.605 38.1647 12.1691C41.8474 13.9381 46.5239 17.3409 48.8429 21.6508C54.5615 20.6505 60.5342 21.5029 60.5342 21.5029C60.5342 21.5029 70.9679 21.3485 83.2317 7.11305C83.2542 7.08732 86.7472 36.3301 77.288 42.6919C77.288 42.6919 79.2467 46.6995 90.3945 49.0442C85.8562 53.2865 80.7905 55.2163 77.2976 55.0748C80.4657 57.2329 87.4258 59.7255 90.1725 59.7577ZM29.9342 77.0551C28.1588 77.2416 26.3962 76.5597 25.2609 75.9808C25.8334 77.0422 26.8561 78.4059 28.3421 78.422C28.3517 78.422 29.2748 78.4252 29.7058 77.8913C29.8763 77.6822 29.9502 77.4024 29.9342 77.0551ZM21.4785 70.4809C20.8867 69.6222 20.2884 68.6122 19.9089 67.628C19.2045 67.6409 18.4616 67.6087 17.6768 67.5219C17.5803 67.5155 17.487 67.509 17.397 67.5026C18.4487 68.8116 20.0922 69.8087 21.4785 70.4809ZM49.5858 61.5717C42.5067 58.9247 35.9326 75.582 31.3783 77.6726C35.8715 76.4375 44.488 61.2372 49.5858 61.5717ZM79.9061 59.7545C71.1866 56.8791 68.5557 51.3181 68.456 51.1219C68.5943 51.2087 76.5547 53.428 82.7171 50.1763C66.3686 50.1088 59.8459 36.6871 59.8459 36.6871C59.8459 36.6871 69.0767 34.262 73.4445 27.527C72.1901 28.3536 67.0987 29.0998 65.23 28.7942C72.7369 25.7259 81.4628 13.0729 81.6493 12.6515C73.0071 25.6776 53.365 26.5203 48.6917 31.0296C50.004 28.7653 54.5197 24.999 54.9828 24.4586C40.5576 24.8446 29.709 37.0216 21.9095 44.2615C22.572 44.9627 23.3118 45.5094 24.3024 46.529C18.2043 49.324 13.576 52.952 10.4851 55.8628C11.0608 56.6572 13.1032 57.9823 17.1139 55.7791C14.0874 58.6384 14.9333 62.527 14.9493 62.9419C14.9493 62.9419 13.8687 63.8424 12.3827 63.9743C16.7955 65.5342 22.4627 66.3865 26.0553 62.5656C31.8897 56.3645 30.9537 53.9523 41.1752 54.9911C40.2521 54.5408 39.3033 54.1259 38.332 53.7529C37.2867 53.354 36.2188 53.0002 35.1285 52.7011C34.585 52.5499 34.035 52.4149 33.4818 52.2959C32.9286 52.1769 32.3689 52.0707 31.8028 52.0064C32.9414 51.8874 55.0825 49.9608 63.5318 62.8036C63.3131 61.1632 63.4353 59.8253 63.0944 58.6995C64.8441 59.6451 78.4491 60.2884 79.9061 59.7545Z" fill="black"/>
<path d="M68.456 51.122C68.5943 51.2088 76.5547 53.4281 82.7171 50.1764C66.3686 50.1088 59.8459 36.6871 59.8459 36.6871C59.8459 36.6871 69.0767 34.262 73.4445 27.5271C72.1901 28.3537 67.0987 29.0998 65.23 28.7943C72.7369 25.7259 81.4628 13.0729 81.6493 12.6516C73.0071 25.6777 53.365 26.5204 48.6917 31.0296C50.004 28.7654 54.5197 24.999 54.9828 24.4587C40.5577 24.8447 29.709 37.0216 21.9095 44.2616C22.572 44.9627 23.3118 45.5095 24.3024 46.5291C18.2043 49.324 13.576 52.9521 10.4851 55.8628C11.0608 56.6572 13.1032 57.9824 17.1139 55.7792C14.0874 58.6385 14.9333 62.527 14.9494 62.9419C14.9494 62.9419 13.8687 63.8425 12.3827 63.9744C13.9137 64.5147 15.5926 64.9714 17.2876 65.1773C19.5262 64.9553 21.7358 63.791 23.6784 60.8642C26.3448 56.847 29.1494 53.9974 31.9572 52.0257C31.909 52.0193 31.8575 52.0129 31.8093 52.0065C31.8511 52.0032 31.9186 51.9968 32.0119 51.9872C44.3658 43.3642 56.7518 51.7041 57.691 52.2187C57.0509 50.0027 53.2332 47.1016 50.4028 45.6317C60.1225 47.4554 67.7259 59.8189 79.9061 59.7546C79.9093 59.7546 79.9125 59.7546 79.9125 59.7513C71.1866 56.8792 68.5557 51.3182 68.456 51.122ZM43.8672 38.4175C47.0836 44.5961 42.436 46.4454 37.0519 46.5644C36.0098 46.6288 34.9709 46.7285 33.9353 46.8829C32.8964 47.0437 31.8672 47.2624 30.8476 47.5519C29.8312 47.8413 28.8278 48.208 27.8532 48.6615C26.8787 49.115 25.9395 49.6682 25.0357 50.3018C25.724 49.443 26.4895 48.6261 27.3386 47.8831C28.1588 47.1659 29.0465 46.5098 29.9792 45.9147C28.6959 45.6607 27.6023 45.3648 26.8529 45.0817C35.3118 45.9051 38.7179 32.4577 51.1812 35.5872C48.1031 35.3942 44.6167 37.2018 43.8672 38.4175Z" fill="#FF5B00"/>
<path d="M68.456 51.122C68.5943 51.2088 76.5547 53.4281 82.7171 50.1764C66.3686 50.1088 59.8459 36.6871 59.8459 36.6871C59.8459 36.6871 69.0767 34.262 73.4445 27.5271C72.1901 28.3537 67.0987 29.0998 65.23 28.7943C72.7369 25.7259 81.4628 13.0729 81.6493 12.6516C73.0071 25.6777 53.365 26.5204 48.6917 31.0296C50.004 28.7654 54.5197 24.999 54.9828 24.4587C40.5577 24.8447 29.709 37.0216 21.9095 44.2616C22.572 44.9627 23.3118 45.5095 24.3024 46.5291C18.2043 49.324 13.576 52.9521 10.4851 55.8628C11.0608 56.6572 13.1032 57.9824 17.1139 55.7792C14.0874 58.6385 14.9333 62.527 14.9494 62.9419C14.9494 62.9419 13.8687 63.8425 12.3827 63.9744C13.9137 64.5147 15.5926 64.9714 17.2876 65.1773C19.5262 64.9553 21.7358 63.791 23.6784 60.8642C26.3448 56.847 29.1494 53.9974 31.9572 52.0257C31.909 52.0193 31.8575 52.0129 31.8093 52.0065C31.8511 52.0032 31.9186 51.9968 32.0119 51.9872C44.3658 43.3642 56.7518 51.7041 57.691 52.2187C57.0509 50.0027 53.2332 47.1016 50.4028 45.6317C60.1225 47.4554 67.7259 59.8189 79.9061 59.7546C79.9093 59.7546 79.9125 59.7546 79.9125 59.7513C71.1866 56.8792 68.5557 51.3182 68.456 51.122ZM43.8672 38.4175C47.0836 44.5961 42.436 46.4454 37.0519 46.5644C36.0098 46.6288 34.9709 46.7285 33.9353 46.8829C32.8964 47.0437 31.8672 47.2624 30.8476 47.5519C29.8312 47.8413 28.8278 48.208 27.8532 48.6615C26.8787 49.115 25.9395 49.6682 25.0357 50.3018C25.724 49.443 26.4895 48.6261 27.3386 47.8831C28.1588 47.1659 29.0465 46.5098 29.9792 45.9147C28.6959 45.6607 27.6023 45.3648 26.8529 45.0817C35.3118 45.9051 38.7179 32.4577 51.1812 35.5872C48.1031 35.3942 44.6167 37.2018 43.8672 38.4175Z" fill="#D6D6D6"/>
<path d="M48.6917 31.0297C41.9342 28.0482 28.7281 39.6462 24.1577 44.4289C24.3764 44.6862 26.5924 46.6674 26.5924 46.6674C26.5924 46.6674 18.468 49.9609 15.7438 56.4289C12.6304 57.6672 10.9901 56.5608 10.4851 55.8629C13.576 52.9521 18.2043 49.3209 24.3024 46.5291C23.3118 45.5063 22.572 44.9628 21.9095 44.2616C29.709 37.0217 40.5577 24.8447 54.9828 24.4588C54.5197 25.0023 50.004 28.7686 48.6917 31.0297ZM48.6917 31.0297C53.603 26.7263 67.6005 33.5706 81.6493 12.6484C73.0071 25.6777 53.365 26.5204 48.6917 31.0297Z" fill="#959595"/>
<path d="M29.9342 77.055C29.9503 77.4024 29.8763 77.6822 29.7058 77.8913C29.2748 78.422 28.3517 78.422 28.3421 78.422C26.8562 78.4059 25.8334 77.0454 25.2609 75.9808C26.3962 76.5597 28.1588 77.2384 29.9342 77.055ZM17.6768 67.5219C17.5803 67.5154 17.487 67.509 17.397 67.5026C18.4487 68.8084 20.0922 69.8087 21.4785 70.4809C20.8867 69.6221 20.2884 68.6122 19.9089 67.628C19.2045 67.6441 18.4616 67.6087 17.6768 67.5219ZM39.0106 41.1063L39.001 41.0837C36.3572 43.8337 33.5622 44.9658 32.652 45.3421C35.968 45.2328 40.0559 44.9112 39.0106 41.1063Z" fill="white"/>
</svg>
